<?xml version="1.0" encoding="utf-8"?><svg version="1.1" id="Layer_1" xmlns="http://www.w3.org/2000/svg" xmlns:xlink="http://www.w3.org/1999/xlink" x="0px" y="0px" viewBox="0 0 132 245" style="enable-background:new 0 0 132 245;" xml:space="preserve"><style type="text/css"> .st0{fill:#333333;} .st1{fill:#FFFFFF;} .st2{fill:#808080;} .st3{fill:#4D4D4D;} .st4{fill:#D9D9D9;} .st5{fill:#CFD8DC;} .st6{fill:none;} .st7{fill:#CDD0D5;} .st8{fill:#EFF0F2;} .st9{fill:none;stroke:#959CA5;stroke-width:2.7967;stroke-linecap:round;stroke-miterlimit:10;} .st10{fill:#1967D2;} .st11{fill:#EBEBEB;} .st12{fill:#B6B6B6;} .st13{fill:#FBBC04;} .st14{fill:#EA4335;} .st15{fill:#4280EC;} .st16{fill:#34A853;}</style><path class="st0" d="M108.55,9.97h-85c-6.9,0-12.5,5.6-12.5,12.5v199c0,6.9,5.6,12.5,12.5,12.5h85c6.9,0,12.5-5.6,12.5-12.5v-199 C121.05,15.57,115.45,9.97,108.55,9.97z"/><path class="st1" d="M15.55,30.67h101v179.4h-101V30.67z"/><path class="st2" d="M31.45,21.37c1.33,0,2.4-1.07,2.4-2.4c0-1.33-1.07-2.4-2.4-2.4c-1.33,0-2.4,1.07-2.4,2.4 C29.05,20.3,30.13,21.37,31.45,21.37z"/><path class="st3" d="M84.25,20.77h-36.4c-1.1,0-2-0.9-2-2c0-1.1,0.9-2,2-2h36.4c1.1,0,2,0.9,2,2 C86.25,19.77,85.35,20.77,84.25,20.77z"/><path class="st3" d="M84.75,226.37h-37c-0.9,0-1.6-0.7-1.6-1.6c0-0.9,0.7-1.6,1.6-1.6h37c0.9,0,1.6,0.7,1.6,1.6 C86.35,225.67,85.65,226.37,84.75,226.37z"/><path class="st4" d="M23.55,107.97h84v10.5h-84V107.97z M23.55,123.72h84v5.25h-84V123.72z M23.55,134.22h84v5.25h-84V134.22z M23.55,144.72h84v5.25h-84V144.72z"/><path class="st5" d="M23.55,40.35h83.9v58.62h-83.9V40.35z"/><rect x="87.98" y="41.97" class="st6" width="16" height="16"/><path class="st7" d="M103.55,42.97h-76v54h76V42.97z"/><path class="st8" d="M45.51,72.9c6.61,0,11.97-5.36,11.97-11.97c0-6.61-5.36-11.97-11.97-11.97c-6.61,0-11.97,5.36-11.97,11.97 C33.54,67.54,38.9,72.9,45.51,72.9z"/><path class="st9" d="M35.65,82.01l59.9-0.14"/><path class="st9" d="M36.54,90.61h39.78"/><rect x="42.55" y="133.97" class="st10" width="46" height="6"/><path class="st10" d="M91.28,119.08l6.65-3.02l-6.65-3.02l-3.02-6.65l-3.02,6.65l-6.65,3.02l6.65,3.02l3.02,6.65L91.28,119.08z M85.84,125.72l-3.32-1.51l-1.51-3.32l-1.51,3.32l-3.32,1.51l3.32,1.51l1.51,3.32l1.51-3.32L85.84,125.72z"/><path class="st10" d="M49.01,118.76l-2.29-5.04l-2.29,5.04l-5.04,2.29l5.04,2.29l2.29,5.04l2.29-5.04l5.04-2.29L49.01,118.76z M54.05,122.89l-1.15,2.52l-2.52,1.14l2.52,1.15l1.15,2.52l1.15-2.52l2.52-1.15l-2.52-1.14L54.05,122.89z"/><rect x="15.55" y="155.97" class="st11" width="101" height="54"/><rect x="21.55" y="166.97" class="st6" width="34" height="34"/><rect x="76.55" y="173.97" class="st12" width="31" height="6"/><rect x="61.55" y="189.97" class="st12" width="46" height="6"/><g> <path class="st13" d="M58.46,164.66H46.8c-0.94,0-1.84,0.37-2.5,1.04l-18.13,18.13c-1.38,1.38-1.38,3.62,0,5l11.67,11.67 c1.38,1.38,3.62,1.38,5,0l18.13-18.13c0.66-0.66,1.04-1.56,1.04-2.5V168.2C62,166.24,60.42,164.66,58.46,164.66z"/> <path class="st14" d="M44,182.66l16.97-16.97c-0.64-0.64-1.52-1.04-2.5-1.04H46.8c-0.94,0-1.84,0.37-2.5,1.04l-8.64,8.64L44,182.66 z"/> <path class="st15" d="M52.33,191l8.64-8.64c0.66-0.66,1.04-1.56,1.04-2.5V168.2c0-0.98-0.4-1.86-1.04-2.5L44,182.66L52.33,191z"/> <path class="st16" d="M44,182.66L32,194.66l5.83,5.83c1.38,1.38,3.62,1.38,5,0l9.49-9.49L44,182.66z"/> <circle class="st1" cx="54.92" cy="171.74" r="2.36"/> <polygon class="st15" points="48.69,178.67 44.48,176.7 40.61,178.28 38.29,181.93 38.82,186.18 43.51,189.58 48.14,188.07 50.26,184.71 49.86,180 "/> <g> <path class="st1" d="M49.41,188.69c1.4-1.31,2.29-3.25,2.29-5.75c0-0.45-0.04-0.94-0.15-1.4h-7.13v2.93h1.58h2.52 c-0.21,1.03-0.77,1.82-1.57,2.33v0.38l2,1.52H49.41z"/> <path class="st1" d="M40.12,184.36c0.59,1.81,2.29,3.11,4.3,3.11c0.98,0,1.85-0.23,2.54-0.67l2.45,1.9 c-1.34,1.24-3.12,1.91-4.98,1.91c-3.03,0-5.62-1.74-6.87-4.27l0.09-0.52l2.08-1.45H40.12z"/> <path class="st1" d="M40.13,181.51c-0.15,0.45-0.23,0.93-0.23,1.42c0,0.5,0.08,0.98,0.23,1.42l-2.57,1.97 c-0.5-1.02-0.78-2.17-0.78-3.39c0-1.22,0.28-2.37,0.78-3.39l0.51-0.11l1.95,1.52L40.13,181.51z"/> <path class="st1" d="M44.42,178.41c1.08,0,2.05,0.38,2.82,1.01l2.23-2.23c-1.36-1.18-3.1-1.91-5.04-1.91 c-3.03,0-5.62,1.73-6.87,4.27l2.57,1.97C40.72,179.71,42.41,178.41,44.42,178.41z"/> </g></g></svg>
