<svg xmlns="http://www.w3.org/2000/svg" xmlns:xlink="http://www.w3.org/1999/xlink" viewBox="0 0 1440 1440"><defs><style>.cls-1,.cls-10,.cls-12,.cls-13,.cls-22,.cls-31,.cls-32,.cls-36,.cls-38,.cls-39,.cls-41,.cls-42,.cls-44,.cls-55{fill:none;}.cls-2{isolation:isolate;}.cls-3{clip-path:url(#clip-path);}.cls-4{fill:#fff;}.cls-5{fill:#4285f4;}.cls-6{opacity:0.5;}.cls-17,.cls-24,.cls-52,.cls-56,.cls-6{mix-blend-mode:multiply;}.cls-7{clip-path:url(#clip-path-3);}.cls-8{clip-path:url(#clip-path-4);}.cls-9{fill:url(#linear-gradient);}.cls-10,.cls-12,.cls-13,.cls-41,.cls-42{stroke:#babfc5;}.cls-10,.cls-12,.cls-13,.cls-22,.cls-36,.cls-41,.cls-42,.cls-44,.cls-55{stroke-linecap:round;}.cls-10,.cls-12,.cls-13,.cls-22,.cls-31,.cls-32,.cls-36,.cls-38,.cls-55{stroke-miterlimit:10;}.cls-10,.cls-12{stroke-width:3.64px;}.cls-10{stroke-dasharray:14.56 14.56;}.cls-11{fill:#eff0f2;}.cls-13{stroke-width:3.62px;}.cls-14{fill:#e1e2e6;}.cls-15{fill:#2a2c33;}.cls-16{fill:#979da5;}.cls-17{opacity:0.35;}.cls-18{clip-path:url(#clip-path-5);}.cls-19{clip-path:url(#clip-path-6);}.cls-20{fill:url(#linear-gradient-2);}.cls-21{clip-path:url(#clip-path-7);}.cls-22,.cls-31{stroke:#979da5;}.cls-22{stroke-width:3.59px;}.cls-23{fill:#fabb05;}.cls-24{opacity:0.4;}.cls-25{clip-path:url(#clip-path-9);}.cls-26{clip-path:url(#clip-path-10);}.cls-27{fill:url(#linear-gradient-3);}.cls-28{clip-path:url(#clip-path-11);}.cls-29{clip-path:url(#clip-path-12);}.cls-30{fill:url(#linear-gradient-4);}.cls-31,.cls-32{stroke-width:2.34px;}.cls-32{stroke:#686c71;}.cls-33{fill:#ea4335;}.cls-34{fill:#34a853;}.cls-35{clip-path:url(#clip-path-13);}.cls-36,.cls-44,.cls-55{stroke:#e1e2e6;}.cls-36{stroke-width:1.79px;}.cls-37{clip-path:url(#clip-path-15);}.cls-38{stroke:#6199f6;}.cls-38,.cls-39{stroke-width:5.94px;}.cls-39{stroke:#f1f1f2;}.cls-39,.cls-41,.cls-42,.cls-44{stroke-linejoin:round;}.cls-40{fill:#676c72;}.cls-41{stroke-width:4.31px;}.cls-42,.cls-44{stroke-width:6.89px;}.cls-43{fill:#292d33;}.cls-45{clip-path:url(#clip-path-17);}.cls-46{fill:url(#linear-gradient-5);}.cls-47{fill:#fbbc05;}.cls-48{clip-path:url(#clip-path-19);}.cls-49{clip-path:url(#clip-path-20);}.cls-50{fill:url(#linear-gradient-6);}.cls-51{fill:#df382b;}.cls-53{clip-path:url(#clip-path-21);}.cls-54{fill:#90130e;}.cls-55{stroke-width:10.34px;}.cls-56{opacity:0.37;}.cls-57{clip-path:url(#clip-path-22);}.cls-58{fill:url(#linear-gradient-7);}</style><clipPath id="clip-path"><rect class="cls-1" width="1440" height="1440"/></clipPath><clipPath id="clip-path-3"><rect class="cls-1" x="329.69" y="302.48" width="80.19" height="233.88"/></clipPath><clipPath id="clip-path-4"><path class="cls-1" d="M409.88,342.57a40.1,40.1,0,1,0-80.19,0V536.36h80.19Z"/></clipPath><linearGradient id="linear-gradient" y1="1440" x2="1" y2="1440" gradientTransform="matrix(80.19, 0, 0, -80.19, 329.69, 115892.08)" gradientUnits="userSpaceOnUse"><stop offset="0" stop-color="#fff"/><stop offset="1" stop-color="#979da5"/></linearGradient><clipPath id="clip-path-5"><rect class="cls-1" x="687.11" y="1047.96" width="583.51" height="30.82"/></clipPath><clipPath id="clip-path-6"><path class="cls-1" d="M687.11,1078.78v-27.23a3.59,3.59,0,0,1,3.59-3.59h579.92v30.82Z"/></clipPath><linearGradient id="linear-gradient-2" y1="1440" x2="1" y2="1440" gradientTransform="matrix(583.51, 0, 0, -583.51, 687.11, 841322.7)" gradientUnits="userSpaceOnUse"><stop offset="0" stop-color="#979da5"/><stop offset="1" stop-color="#fff"/></linearGradient><clipPath id="clip-path-7"><path class="cls-1" d="M690.7,1048a3.59,3.59,0,0,0-3.59,3.59v65.34a3.59,3.59,0,0,0,3.59,3.59h579.92V1048Z"/></clipPath><clipPath id="clip-path-9"><rect class="cls-1" x="238.17" y="809.56" width="138.77" height="256.3"/></clipPath><clipPath id="clip-path-10"><path class="cls-1" d="M376.93,809.86l0,12.28a16,16,0,0,1-7.8,13.71l-26.28,15.69a32,32,0,0,0-15,33.7l12.37,62.53a106.64,106.64,0,0,1-.56,44.08l-14.74,65.67a10.68,10.68,0,0,1-10.44,8.34l-14.89,0a10.68,10.68,0,0,1-10.4-8.38l-14.46-65.74a106.81,106.81,0,0,1-.38-44.08L287,885.15a32,32,0,0,0-14.85-33.76l-26.21-15.8a16,16,0,0,1-7.74-13.75l0-12.28Z"/></clipPath><linearGradient id="linear-gradient-3" y1="1440" x2="1" y2="1440" gradientTransform="translate(-199475.48 1006.86) rotate(-90) scale(138.74)" gradientUnits="userSpaceOnUse"><stop offset="0" stop-color="#fbbc05"/><stop offset="1" stop-color="#fff"/></linearGradient><clipPath id="clip-path-11"><rect class="cls-1" x="238.2" y="734.86" width="138.9" height="75"/></clipPath><clipPath id="clip-path-12"><rect class="cls-1" x="270.29" y="702.99" width="74.71" height="138.74" transform="translate(-465.37 1078.35) rotate(-89.88)"/></clipPath><linearGradient id="linear-gradient-4" y1="1440" x2="1" y2="1440" gradientTransform="translate(-199475.32 841.7) rotate(-90) scale(138.74)" gradientUnits="userSpaceOnUse"><stop offset="0" stop-color="#808285"/><stop offset="1" stop-color="#fff"/></linearGradient><clipPath id="clip-path-13"><path class="cls-1" d="M307.75,961.85a101.34,101.34,0,0,1,101.34,101.34H206.42A101.34,101.34,0,0,1,307.75,961.85m-.08-67.55c-93.51,0-168.81,77-168.81,170.5v40.61a8.44,8.44,0,0,0,8.45,8.44H468.2a8.44,8.44,0,0,0,8.44-8.44v-42.22A168.9,168.9,0,0,0,307.75,894.3h-.08"/></clipPath><clipPath id="clip-path-15"><path class="cls-1" d="M369.78,302.48a40.09,40.09,0,0,1,40.1,40.09v227.2H724V342.57a40.09,40.09,0,0,0-40.09-40.09Z"/></clipPath><clipPath id="clip-path-17"><path class="cls-1" d="M723.93,662l6.28,11.23,42.27,11.92A25.74,25.74,0,0,0,792,682.79l282.49-158.17-25.13-44.89Z"/></clipPath><linearGradient id="linear-gradient-5" y1="1440.01" x2="1" y2="1440.01" gradientTransform="matrix(0, 175.92, 175.92, 0, -252424.59, 501.91)" gradientUnits="userSpaceOnUse"><stop offset="0" stop-color="#959ca5"/><stop offset="0.03" stop-color="#969da6"/><stop offset="0.21" stop-color="#a0a6ae"/><stop offset="0.52" stop-color="#babfc5"/><stop offset="0.92" stop-color="#e6e7ea"/><stop offset="1" stop-color="#eff0f2"/></linearGradient><clipPath id="clip-path-19"><rect class="cls-1" x="956.11" y="684.98" width="111.92" height="186.61"/></clipPath><clipPath id="clip-path-20"><rect class="cls-1" x="922.03" y="752.56" width="180.07" height="51.45" transform="translate(-74.35 1448.89) rotate(-69.25)"/></clipPath><linearGradient id="linear-gradient-6" y1="1440" x2="1" y2="1440" gradientTransform="matrix(0, 51.45, 51.45, 0, -73073.27, 752.57)" gradientUnits="userSpaceOnUse"><stop offset="0" stop-color="#f16522"/><stop offset="0.18" stop-color="#f48753"/><stop offset="0.48" stop-color="#f9ba9c"/><stop offset="0.72" stop-color="#fcdfd2"/><stop offset="0.9" stop-color="#fef6f3"/><stop offset="1" stop-color="#fff"/></linearGradient><clipPath id="clip-path-21"><rect class="cls-1" x="1040.22" y="653.99" width="21.45" height="41.53"/></clipPath><clipPath id="clip-path-22"><rect class="cls-1" x="974.64" y="609.7" width="31.32" height="34.69"/></clipPath><linearGradient id="linear-gradient-7" x1="0" y1="1440" x2="1" y2="1440" gradientTransform="matrix(27.74, -32.19, -32.19, -27.74, 47326.29, 40587.88)" xlink:href="#linear-gradient-2"/></defs><title>compass_measure_tools</title><g class="cls-2"><g id="Layer_1" data-name="Layer 1"><g class="cls-3"><g class="cls-3"><path class="cls-4" d="M270.68,67.69a3.24,3.24,0,1,1,0-4.58,3.25,3.25,0,0,1,0,4.58"/><path class="cls-5" d="M409.88,342.57a40.1,40.1,0,0,0-80.19,0V536.36h80.19Z"/><g class="cls-6"><g class="cls-7"><g class="cls-8"><rect class="cls-9" x="329.69" y="302.47" width="80.19" height="233.89"/></g></g></g><line class="cls-10" x1="685.41" y1="174.46" x2="685.41" y2="560.81"/><path class="cls-11" d="M1025.56,623.52H685.49V763.2H879.82c-8.37,45.13-33.81,83.37-72.06,109-32.33,21.66-73.69,34.47-122.27,34.47-94,0-173.65-63.52-202-148.87a213.55,213.55,0,0,1,0-137.21c28.4-85.35,108-148.87,202.05-148.87,53,0,100.61,18.22,138,54L927.09,422.13c-62.54-58.26-144.27-94-241.6-94C544.34,328.09,422.22,409,362.81,527a361.51,361.51,0,0,0,0,324.32c59.41,118,181.53,198.93,322.68,198.93,97.49,0,179.23-32.33,239-87.48,68.28-62.86,107.67-155.43,107.67-265.4a414.75,414.75,0,0,0-6.57-73.86"/><path class="cls-12" d="M952.47,935.08a365.2,365.2,0,0,1-265.36,113.36c-201,0-364-160.85-364-359.27s163-359.27,364-359.27a365.62,365.62,0,0,1,203.5,61.36"/><path class="cls-10" d="M890.61,391.26c78.25,52.18,134.84,133.61,153.67,228.39"/><line class="cls-13" x1="566.77" y1="1048.44" x2="1320.21" y2="1048.44"/><line class="cls-10" x1="43.08" y1="1048.44" x2="566.77" y2="1048.44"/><line class="cls-10" x1="1315.45" y1="1048.44" x2="1396.92" y2="1048.44"/><line class="cls-12" x1="268.17" y1="330.2" x2="1106.05" y2="330.2"/><line class="cls-10" x1="126.51" y1="330.2" x2="254.76" y2="330.2"/><line class="cls-10" x1="1119.46" y1="330.2" x2="1247.71" y2="330.2"/><path class="cls-14" d="M687.11,1116.89v-65.34a3.59,3.59,0,0,1,3.59-3.59h579.92v72.52H690.7a3.59,3.59,0,0,1-3.59-3.59"/><path class="cls-15" d="M1270.62,1048s-49.81-21.76-49.81-108.8A32.14,32.14,0,0,0,1201,909.32l-15.76-6.42V1048Z"/><path class="cls-15" d="M1270.62,1120.48s-49.81,21.76-49.81,108.8a32.15,32.15,0,0,1-19.82,29.84l-15.76,6.42V1120.48Z"/><path class="cls-16" d="M1252.83,1109.6a3.63,3.63,0,1,1,3.56-3.62,3.59,3.59,0,0,1-3.56,3.62"/><path class="cls-16" d="M1252.83,1066.09a3.63,3.63,0,1,1,3.56-3.63,3.59,3.59,0,0,1-3.56,3.63"/><path class="cls-16" d="M1210.14,1066.09a3.63,3.63,0,1,1,3.56-3.63,3.6,3.6,0,0,1-3.56,3.63"/><path class="cls-16" d="M1210.14,1109.6a3.63,3.63,0,1,1,3.56-3.62,3.59,3.59,0,0,1-3.56,3.62"/><g class="cls-17"><g class="cls-18"><g class="cls-19"><rect class="cls-20" x="687.11" y="1047.96" width="583.51" height="30.82"/></g></g></g></g><g class="cls-21"><line class="cls-22" x1="1071.38" y1="1037.08" x2="1071.38" y2="1058.84"/><line class="cls-22" x1="1057.14" y1="1037.08" x2="1057.14" y2="1058.84"/><line class="cls-22" x1="1085.61" y1="1037.08" x2="1085.61" y2="1058.84"/><line class="cls-22" x1="1099.84" y1="1037.08" x2="1099.84" y2="1058.84"/><line class="cls-22" x1="1114.07" y1="1037.08" x2="1114.07" y2="1067.9"/><line class="cls-22" x1="1000.22" y1="1037.08" x2="1000.22" y2="1058.84"/><line class="cls-22" x1="985.98" y1="1037.08" x2="985.98" y2="1058.84"/><line class="cls-22" x1="1014.45" y1="1037.08" x2="1014.45" y2="1058.84"/><line class="cls-22" x1="1028.68" y1="1037.08" x2="1028.68" y2="1058.84"/><line class="cls-22" x1="1042.91" y1="1037.08" x2="1042.91" y2="1067.9"/><line class="cls-22" x1="929.06" y1="1037.08" x2="929.06" y2="1058.84"/><line class="cls-22" x1="914.82" y1="1037.08" x2="914.82" y2="1058.84"/><line class="cls-22" x1="943.29" y1="1037.08" x2="943.29" y2="1058.84"/><line class="cls-22" x1="957.52" y1="1037.08" x2="957.52" y2="1058.84"/><line class="cls-22" x1="971.75" y1="1037.08" x2="971.75" y2="1067.9"/><line class="cls-22" x1="857.9" y1="1037.08" x2="857.9" y2="1058.84"/><line class="cls-22" x1="843.66" y1="1037.08" x2="843.66" y2="1058.84"/><line class="cls-22" x1="872.13" y1="1037.08" x2="872.13" y2="1058.84"/><line class="cls-22" x1="886.36" y1="1037.08" x2="886.36" y2="1058.84"/><line class="cls-22" x1="900.59" y1="1037.08" x2="900.59" y2="1067.9"/><line class="cls-22" x1="786.74" y1="1037.08" x2="786.74" y2="1058.84"/><line class="cls-22" x1="772.5" y1="1037.08" x2="772.5" y2="1058.84"/><line class="cls-22" x1="800.97" y1="1037.08" x2="800.97" y2="1058.84"/><line class="cls-22" x1="815.2" y1="1037.08" x2="815.2" y2="1058.84"/><line class="cls-22" x1="829.43" y1="1037.08" x2="829.43" y2="1067.9"/><line class="cls-22" x1="715.58" y1="1037.08" x2="715.58" y2="1058.84"/><line class="cls-22" x1="701.34" y1="1037.08" x2="701.34" y2="1058.84"/><line class="cls-22" x1="729.81" y1="1037.08" x2="729.81" y2="1058.84"/><line class="cls-22" x1="744.04" y1="1037.08" x2="744.04" y2="1058.84"/><line class="cls-22" x1="758.27" y1="1037.08" x2="758.27" y2="1067.9"/><line class="cls-22" x1="1142.54" y1="1037.08" x2="1142.54" y2="1058.84"/><line class="cls-22" x1="1128.3" y1="1037.08" x2="1128.3" y2="1058.84"/><line class="cls-22" x1="1156.77" y1="1037.08" x2="1156.77" y2="1058.84"/><line class="cls-22" x1="1171" y1="1037.08" x2="1171" y2="1058.84"/><line class="cls-22" x1="1185.23" y1="1037.08" x2="1185.23" y2="1067.9"/></g><g class="cls-3"><path class="cls-23" d="M376.93,809.86l0,12.28a16,16,0,0,1-7.81,13.71l-26.27,15.69a32,32,0,0,0-15,33.7l12.36,62.53a106.64,106.64,0,0,1-.56,44.08l-14.74,65.67a10.68,10.68,0,0,1-10.44,8.34l-14.89,0a10.68,10.68,0,0,1-10.4-8.38l-14.46-65.74a106.81,106.81,0,0,1-.38-44.08L287,885.15a32,32,0,0,0-14.85-33.76l-26.21-15.8a16,16,0,0,1-7.74-13.75l0-12.28Z"/><g class="cls-24"><g class="cls-25"><g class="cls-26"><rect class="cls-27" x="179.24" y="868.05" width="256.6" height="139.32" transform="matrix(0, -1, 1, 0, -630.83, 1243.26)"/></g></g></g><rect class="cls-14" x="270.29" y="702.99" width="74.71" height="138.74" transform="translate(-465.37 1078.35) rotate(-89.88)"/><g class="cls-24"><g class="cls-28"><g class="cls-29"><rect class="cls-30" x="269.99" y="702.83" width="75.3" height="139.06" transform="translate(-465.37 1078.35) rotate(-89.88)"/></g></g></g><line class="cls-31" x1="377.06" y1="751.16" x2="238.32" y2="750.87"/><line class="cls-31" x1="376.97" y1="793.85" x2="238.23" y2="793.56"/><path class="cls-15" d="M374.22,617.75l-132.49-.28a3.12,3.12,0,0,0-3.13,3.12l-.25,114.27,138.74.29.25-114.26a3.14,3.14,0,0,0-3.12-3.14"/><line class="cls-32" x1="361.08" y1="735.12" x2="361.33" y2="617.73"/><line class="cls-32" x1="339.74" y1="735.07" x2="339.99" y2="617.68"/><line class="cls-32" x1="318.4" y1="735.03" x2="318.65" y2="617.64"/><line class="cls-32" x1="297.05" y1="734.98" x2="297.3" y2="617.59"/><line class="cls-32" x1="275.71" y1="734.94" x2="275.96" y2="617.54"/><line class="cls-32" x1="254.36" y1="734.89" x2="254.61" y2="617.5"/><path class="cls-33" d="M243.94,617.48l128.07.27a5.34,5.34,0,0,1,5.32,5.35l-.08,37.35-22.94,45.64A16,16,0,0,1,329.56,711l-40-34.46a32,32,0,0,0-39.44-1.83L238.46,683l.13-60.22a5.33,5.33,0,0,1,5.35-5.32"/><path class="cls-34" d="M307.67,894.3c-93.51,0-168.81,77-168.81,170.5v40.61a8.44,8.44,0,0,0,8.45,8.44H468.2a8.44,8.44,0,0,0,8.44-8.44v-42.22a168.88,168.88,0,0,0-169-168.89m-96.93,168.89a4.23,4.23,0,0,1-4.23-4.39,101.33,101.33,0,0,1,202.48,0,4.22,4.22,0,0,1-4.22,4.39Z"/></g><g class="cls-35"><line class="cls-36" x1="307.75" y1="885.85" x2="307.75" y2="919.63"/><line class="cls-36" x1="382.7" y1="902.47" x2="368.42" y2="933.08"/><line class="cls-36" x1="323.21" y1="886.53" x2="321.74" y2="903.35"/><line class="cls-36" x1="338.55" y1="888.55" x2="335.61" y2="905.18"/><line class="cls-36" x1="353.65" y1="891.89" x2="349.28" y2="908.21"/><line class="cls-36" x1="368.4" y1="896.55" x2="362.63" y2="912.42"/><line class="cls-36" x1="443.6" y1="949.2" x2="417.72" y2="970.91"/><line class="cls-36" x1="396.42" y1="909.61" x2="387.98" y2="924.24"/><line class="cls-36" x1="409.47" y1="917.92" x2="399.78" y2="931.76"/><line class="cls-36" x1="421.74" y1="927.34" x2="410.89" y2="940.28"/><line class="cls-36" x1="433.15" y1="937.79" x2="421.21" y2="949.73"/><line class="cls-36" x1="479.05" y1="1017.29" x2="446.42" y2="1026.03"/><line class="cls-36" x1="453.02" y1="961.47" x2="439.18" y2="971.16"/><line class="cls-36" x1="461.33" y1="974.52" x2="446.7" y2="982.96"/><line class="cls-36" x1="468.47" y1="988.24" x2="453.17" y2="995.38"/><line class="cls-36" x1="474.39" y1="1002.53" x2="458.52" y2="1008.31"/><line class="cls-36" x1="482.39" y1="1032.39" x2="465.76" y2="1035.33"/><line class="cls-36" x1="484.41" y1="1047.73" x2="467.59" y2="1049.2"/><line class="cls-36" x1="147.92" y1="1049.2" x2="131.09" y2="1047.73"/><line class="cls-36" x1="307.75" y1="885.85" x2="307.75" y2="919.63"/><line class="cls-36" x1="232.81" y1="902.47" x2="247.08" y2="933.08"/><line class="cls-36" x1="292.3" y1="886.53" x2="293.77" y2="903.35"/><line class="cls-36" x1="276.96" y1="888.55" x2="279.89" y2="905.18"/><line class="cls-36" x1="261.85" y1="891.89" x2="266.23" y2="908.21"/><line class="cls-36" x1="247.1" y1="896.55" x2="252.88" y2="912.42"/><line class="cls-36" x1="171.9" y1="949.2" x2="197.78" y2="970.91"/><line class="cls-36" x1="219.08" y1="909.61" x2="227.53" y2="924.24"/><line class="cls-36" x1="206.04" y1="917.92" x2="215.72" y2="931.76"/><line class="cls-36" x1="193.76" y1="927.34" x2="204.62" y2="940.28"/><line class="cls-36" x1="182.36" y1="937.79" x2="194.3" y2="949.73"/><line class="cls-36" x1="136.46" y1="1017.29" x2="169.09" y2="1026.03"/><line class="cls-36" x1="162.49" y1="961.47" x2="176.32" y2="971.16"/><line class="cls-36" x1="154.17" y1="974.52" x2="168.8" y2="982.96"/><line class="cls-36" x1="147.03" y1="988.24" x2="162.34" y2="995.38"/><line class="cls-36" x1="141.11" y1="1002.53" x2="156.98" y2="1008.31"/><line class="cls-36" x1="133.11" y1="1032.39" x2="149.74" y2="1035.33"/><line class="cls-36" x1="131.09" y1="1047.73" x2="147.92" y2="1049.2"/><line class="cls-36" x1="130.42" y1="1063.19" x2="147.31" y2="1063.19"/><line class="cls-36" x1="468.2" y1="1063.19" x2="485.09" y2="1063.19"/><line class="cls-36" x1="467.59" y1="1049.2" x2="484.41" y2="1047.73"/></g><g class="cls-3"><line class="cls-12" x1="685.41" y1="443.91" x2="685.41" y2="1194.81"/><rect class="cls-5" x="409.88" y="342.57" width="314.08" height="227.2"/><path class="cls-5" d="M683.86,382.66A40.09,40.09,0,1,1,724,342.57a40.09,40.09,0,0,1-40.09,40.09"/><path class="cls-5" d="M369.78,302.48a40.09,40.09,0,0,1,40.1,40.09V360l6.47,9.29H683.86V302.48Z"/></g><g class="cls-37"><path class="cls-38" d="M697.22,339.23a40.09,40.09,0,0,0-40.09-40.1H396.51a40.1,40.1,0,0,1,40.1,40.1V543H697.22Z"/><path class="cls-38" d="M425.47,299.13a40.11,40.11,0,0,1,40.1,40.1V543"/><path class="cls-38" d="M454.43,299.13a40.1,40.1,0,0,1,40.09,40.1V543"/><path class="cls-38" d="M483.38,299.13a40.1,40.1,0,0,1,40.1,40.1V543"/><path class="cls-38" d="M512.34,299.13a40.1,40.1,0,0,1,40.1,40.1V543"/><path class="cls-38" d="M541.3,299.13a40.1,40.1,0,0,1,40.09,40.1V543"/><path class="cls-38" d="M570.26,299.13a40.1,40.1,0,0,1,40.09,40.1V543"/><path class="cls-38" d="M599.21,299.13a40.1,40.1,0,0,1,40.1,40.1V543"/><path class="cls-38" d="M628.17,299.13a40.1,40.1,0,0,1,40.1,40.1V543"/><line class="cls-38" x1="697.22" y1="511.3" x2="436.61" y2="511.3"/><line class="cls-38" x1="697.22" y1="479.56" x2="436.61" y2="479.56"/><line class="cls-38" x1="697.22" y1="447.82" x2="436.61" y2="447.82"/><line class="cls-38" x1="697.22" y1="416.08" x2="436.61" y2="416.08"/><line class="cls-38" x1="697.22" y1="384.34" x2="436.61" y2="384.34"/><line class="cls-38" x1="697.22" y1="352.59" x2="436.61" y2="352.59"/><line class="cls-38" x1="693.05" y1="320.85" x2="432.43" y2="320.85"/><path class="cls-39" d="M425.47,299.13a40.11,40.11,0,0,1,40.1,40.1V447.82h202.7V339.23a40.11,40.11,0,0,0-40.1-40.1"/></g><g class="cls-3"><line class="cls-10" x1="1112.25" y1="623.65" x2="1157.9" y2="623.65"/><line class="cls-12" x1="639.28" y1="623.65" x2="1112.25" y2="623.65"/><line class="cls-10" x1="594.27" y1="623.65" x2="639.28" y2="623.65"/><path class="cls-40" d="M695.34,689.17a8.23,8.23,0,1,1-8.23-8.22,8.22,8.22,0,0,1,8.23,8.22"/><line class="cls-41" x1="941.59" y1="585.06" x2="1029.27" y2="660.63"/><path class="cls-42" d="M1155.22,514.49a51.45,51.45,0,1,1-5.38-72.56A51.45,51.45,0,0,1,1155.22,514.49Z"/><line class="cls-42" x1="1149.84" y1="441.93" x2="1162.43" y2="427.31"/><rect class="cls-43" x="1153.5" y="394.96" width="51.45" height="25.72" transform="translate(100.47 1034.87) rotate(-49.25)"/><line class="cls-44" x1="749.52" y1="655" x2="687.79" y2="689.56"/></g><g class="cls-45"><rect class="cls-46" x="706.3" y="382.91" width="385.85" height="400.86" transform="translate(-129.7 883.69) rotate(-49.24)"/></g><g class="cls-3"><rect class="cls-47" x="922.03" y="752.56" width="180.07" height="51.45" transform="translate(-74.37 1448.87) rotate(-69.24)"/><g class="cls-6"><g class="cls-48"><g class="cls-49"><rect class="cls-50" x="904.99" y="692.89" width="214.17" height="170.79" transform="translate(-74.36 1448.87) rotate(-69.24)"/></g></g></g><polygon class="cls-14" points="956.11 853.37 952.82 934.64 1004.22 871.6 956.11 853.37"/><polygon class="cls-15" points="969.95 913.63 953.91 907.55 952.82 934.64 969.95 913.63"/><rect class="cls-51" x="990" y="590.2" width="167.21" height="51.45" transform="translate(117.19 1401.58) rotate(-69.24)"/><g class="cls-52"><g class="cls-53"><path class="cls-54" d="M1059.07,654.26a4,4,0,0,0-5.18,2.33l-13.67,36.08,7.51,2.85,13.68-36.08a4,4,0,0,0-2.34-5.18"/></g></g><line class="cls-55" x1="1000.8" y1="614.87" x2="979.8" y2="639.22"/><g class="cls-56"><g class="cls-57"><path class="cls-58" d="M1004.21,617.8l-21,24.36a4.5,4.5,0,0,1-6.81-5.87l21-24.36a4.5,4.5,0,0,1,6.82,5.87"/></g></g></g></g></g></g></svg>