<svg width="200" height="125" xmlns="http://www.w3.org/2000/svg" xmlns:xlink="http://www.w3.org/1999/xlink"><defs><path id="a" d="M0 .504h199.482v123.663H0z"/><path id="c" d="M0 .505h199.482v115.328H0z"/></defs><g fill="none" fill-rule="evenodd"><g><mask id="b" fill="#fff"><use xlink:href="#a"/></mask><path d="M199.483 40.665h-.009c-.016-1.5-.927-2.93-2.784-4L136.77 2.113c-4.136-2.385-11.362-2.086-16.138.668L3.952 70.062C1.25 71.62-.089 73.63.006 75.512H0v8.773h.024c.122 1.397 1.028 2.717 2.769 3.72l59.92 34.551c4.135 2.386 11.361 2.086 16.138-.668l116.68-67.28c2.631-1.517 3.962-3.461 3.943-5.301h.009v-8.642z" fill="#BDC1C6" mask="url(#b)"/></g><g><mask id="d" fill="#fff"><use xlink:href="#c"/></mask><path d="M62.712 114.219L2.792 79.577c-4.136-2.391-3.617-6.569 1.16-9.33l116.68-67.458c4.776-2.76 12.001-3.061 16.138-.67l59.92 34.642c4.136 2.392 3.617 6.57-1.159 9.33L78.851 113.55c-4.777 2.761-12.002 3.061-16.139.67" fill="#DADCE0" mask="url(#d)"/></g><path fill="#FFF" d="M77.45 110L10 71.098 121.716 6.667l67.45 38.901z"/><path fill="#DFDFDF" d="M164.72 50.833L112.5 20.767l2.78-1.6 52.22 30.066zM171.386 46.667L119.166 16.6l2.78-1.6 52.22 30.066zM147.197 48.333L105.833 24.14l2.803-1.639L150 46.694zM85.553 95.833l-52.22-30.066 2.78-1.6 52.22 30.066zM92.22 92.5L40 62.434l2.78-1.6L95 90.9zM68.03 94.167L26.668 69.972l2.802-1.639 41.364 24.195z"/><path fill="#669DF6" d="M80.775 70.833L28.333 40.495 76.725 12.5l52.442 30.338z"/><path d="M59.488 39.782l22.774 12.795 5.202-9.072-9.123 1.683c-.354.065-.751.011-1.019-.138-.271-.153-.363-.375-.25-.574l5.09-8.877-22.674 4.183zm24.167 14.011c-.103.182-.37.318-.7.36-.333.042-.685-.016-.928-.153L56.966 39.919c-.247-.139-.349-.335-.277-.523.072-.188.315-.337.637-.396l26.058-4.807c.353-.064.747-.01 1.014.141.272.152.367.372.253.571l-5.089 8.877 9.124-1.683c.353-.065.747-.01 1.015.14.267.151.366.373.253.572l-6.299 10.982zM83.175 29.022c1.504.857 3.916.87 5.381.03 1.465-.84 1.437-2.22-.067-3.076-1.504-.857-3.92-.869-5.384-.029-1.466.84-1.434 2.219.07 3.075m6.73-3.858c2.306 1.313 2.355 3.43.108 4.718-2.243 1.287-5.947 1.266-8.254-.048-2.302-1.311-2.351-3.428-.108-4.714 2.247-1.288 5.95-1.268 8.253.044M74.263 60.628l-28.08-16.561c-.518-.305-.453-.838.144-1.19l1.559-.919c.597-.352 1.5-.39 2.017-.086l28.081 16.561c.517.305.453.838-.145 1.19l-1.559.919c-.597.352-1.5.39-2.017.086" fill="#FFF"/></g></svg>