<svg xmlns="http://www.w3.org/2000/svg" width="40" height="40" fill="none"><rect width="40" height="40" fill="#E6F4EA" rx="20"/><g clip-path="url(#a)"><path fill="#1E8E3E" d="M21.727 21.09a2.63 2.63 0 0 1-1.931-.794A2.63 2.63 0 0 1 19 18.364c0-.758.265-1.402.796-1.932a2.63 2.63 0 0 1 1.931-.796 2.63 2.63 0 0 1 1.932.796c.53.53.796 1.174.796 1.932a2.63 2.63 0 0 1-.796 1.931 2.63 2.63 0 0 1-1.932.796Zm-6.477 2.433c-.47 0-.871-.167-1.204-.5a1.641 1.641 0 0 1-.5-1.205v-6.886c0-.47.166-.871.5-1.205a1.607 1.607 0 0 1 1.204-.523h12.932c.47 0 .871.175 1.204.523.349.334.523.735.523 1.205v6.886c0 .47-.174.871-.523 1.205-.333.333-.735.5-1.204.5H15.25Zm1.727-1.705h9.477c0-.485.167-.894.5-1.227.349-.333.758-.5 1.228-.5v-3.432c-.47 0-.879-.167-1.227-.5a1.718 1.718 0 0 1-.5-1.227h-9.478c0 .47-.174.879-.523 1.227-.333.333-.734.5-1.204.5v3.432c.47 0 .871.167 1.204.5.349.333.523.742.523 1.227Zm10.205 5.16H11.818c-.47 0-.879-.167-1.227-.5a1.718 1.718 0 0 1-.5-1.228v-9.614h1.727v9.614h15.364v1.727Zm-11.932-5.16v-6.886 6.886Z"/></g><defs><clipPath id="a"><path fill="#fff" d="M8 8h24v24H8z"/></clipPath></defs></svg>