<svg width="200" height="125" xmlns="http://www.w3.org/2000/svg" xmlns:xlink="http://www.w3.org/1999/xlink"><defs><path id="a" d="M0 .504h199.483v115.172H0z"/></defs><g fill="none" fill-rule="evenodd"><path d="M199.482 40.753h-.008c-.016-1.501-.927-2.933-2.784-4.005L136.77 2.153c-4.136-2.389-11.362-2.089-16.138.669L3.952 70.187C1.25 71.747-.087 73.76.007 75.644H0v8.784h.024c.122 1.399 1.028 2.72 2.769 3.726l59.92 34.594c4.136 2.388 11.361 2.089 16.138-.669l116.68-67.365c2.63-1.519 3.962-3.466 3.943-5.308h.008v-8.653z" fill="#BDC1C6"/><g transform="translate(0 .036)"><mask id="b" fill="#fff"><use xlink:href="#a"/></mask><path d="M62.712 114.063L2.792 79.47c-4.136-2.388-3.617-6.56 1.16-9.318l116.68-67.365c4.776-2.758 12.002-3.058 16.138-.67l59.92 34.595c4.137 2.389 3.618 6.56-1.159 9.318l-116.68 67.365c-4.776 2.758-12.002 3.057-16.139.67" fill="#DADCE0" mask="url(#b)"/></g><path fill="#FFF" d="M77.622 109.816l-67.41-38.92 111.649-64.46 67.41 38.92z"/><path fill="#DFDFDF" d="M158.52 54.46l-52.43-30.27 2.792-1.611 52.429 30.27zM165.033 50.7l-52.43-30.27 2.791-1.611 52.43 30.27zM171.545 46.94l-52.429-30.27 2.791-1.612 52.43 30.27zM140.772 51.734L99.577 27.95l2.792-1.61 41.194 23.783zM85.949 96.36l-52.43-30.27 2.792-1.612 52.429 30.27zM92.462 92.6l-52.43-30.27 2.791-1.612 52.43 30.27zM98.975 88.84l-52.43-30.271 2.79-1.612 52.43 30.27zM68.201 93.633L27.006 69.85l2.792-1.61 41.194 23.783z"/><path fill="#FBBC04" d="M100.613 59.194l-52.43-30.27 22.33-12.892 52.43 30.27zM86.61 58.63L41.67 32.684l2.791-1.612 44.94 25.946zM57.628 49.417l-22.47-12.973 2.791-1.612 22.47 12.973z"/><path d="M71.88 36.213l16.105 9.298 3.68-6.593-6.453 1.224c-.25.046-.53.008-.72-.101-.191-.111-.257-.272-.176-.417l3.599-6.45-16.035 3.039zm17.09 10.182c-.073.132-.262.23-.495.262a1.099 1.099 0 0 1-.656-.112L70.095 36.312c-.174-.1-.246-.243-.195-.38.051-.136.223-.245.45-.287l18.429-3.493c.25-.047.528-.007.717.102.192.11.26.27.18.415l-3.6 6.451 6.453-1.223c.25-.047.528-.007.717.102.19.11.26.27.179.415l-4.454 7.98z" fill="#FFF"/></g></svg>