<svg width="200" height="125" xmlns="http://www.w3.org/2000/svg"><g fill="none" fill-rule="evenodd"><path d="M199.482 40.753h-.008c-.016-1.501-.927-2.933-2.784-4.005L136.77 2.153c-4.136-2.388-11.362-2.088-16.138.669L3.952 70.187C1.25 71.747-.088 73.76.007 75.645H0v8.783h.024c.122 1.399 1.028 2.72 2.769 3.726l59.92 34.594c4.136 2.388 11.361 2.089 16.138-.669l116.68-67.365c2.63-1.519 3.962-3.466 3.943-5.308h.008v-8.653z" fill="#BDC1C6"/><path d="M62.712 114.1L2.792 79.504c-4.136-2.388-3.617-6.56 1.16-9.318l116.68-67.365c4.776-2.758 12.002-3.057 16.138-.67l59.92 34.595c4.136 2.389 3.617 6.56-1.159 9.318l-116.68 67.366c-4.777 2.757-12.002 3.056-16.139.668" fill="#DADCE0"/><path fill="#FFF" d="M77.622 109.816l-67.41-38.92L121.86 6.437l67.41 38.92z"/><path fill="#DFDFDF" d="M157.59 54.998L127.63 37.7l2.79-1.611 29.96 17.297zM164.102 51.238l-29.96-17.298 2.792-1.611 29.96 17.297zM124.792 30.69c-4.11 2.374-10.797 2.362-14.933-.027-4.137-2.388-4.157-6.248-.047-8.622 4.111-2.373 10.797-2.36 14.933.027 4.137 2.389 4.158 6.249.047 8.622M87.81 95.285L57.85 77.988l2.791-1.611 29.96 17.297zM94.323 91.525l-29.96-17.297 2.79-1.612 29.96 17.298zM55.012 70.978c-4.11 2.373-10.797 2.36-14.933-.027-4.137-2.388-4.158-6.248-.047-8.622 4.11-2.373 10.797-2.361 14.933.027 4.137 2.388 4.158 6.248.047 8.622"/><path fill="#5BB974" d="M106.065 67.815l-67.41-38.919 26.052-15.04 67.409 38.919z"/><path fill="#FFF" d="M106.949 58.656L76.989 41.36l2.791-1.611 29.96 17.297zM74.151 34.349c-4.11 2.374-10.797 2.362-14.933-.027-4.137-2.388-4.158-6.248-.047-8.622 4.11-2.373 10.797-2.36 14.933.027 4.137 2.389 4.158 6.249.047 8.622M113.462 54.896L83.502 37.6l2.79-1.611 29.96 17.297z"/></g></svg>