<svg width="350" height="209" viewBox="0 0 350 209" fill="none" xmlns="http://www.w3.org/2000/svg">
<mask id="mask0" mask-type="alpha" maskUnits="userSpaceOnUse" x="0" y="0" width="350" height="209">
<path d="M350 0H0V209H350V0Z" fill="white"/>
</mask>
<g mask="url(#mask0)">
<path d="M350 0H0V209H350V0Z" fill="white"/>
<path opacity="0.7" d="M173.341 5.32434H29.63V207.959H135.098C156.224 207.959 173.341 190.947 173.341 169.949V5.32434Z" fill="url(#paint0_linear)"/>
<path opacity="0.7" d="M329.55 5.32434H173.341V207.959H291.283C312.41 207.959 329.526 190.947 329.526 169.949V5.32434H329.55Z" fill="url(#paint1_linear)"/>
<path opacity="0.8" d="M329.55 137.299H29.63V207.959H291.306C312.433 207.959 329.55 190.947 329.55 169.949V137.299Z" fill="url(#paint2_linear)"/>
<path d="M296.699 139.467C291.869 136.577 284.741 136.32 279.887 139.467C268.773 146.645 268.843 171.884 282.115 202.762C287.414 202.762 292.737 202.762 298.036 202.762C310.229 172 308.587 146.598 296.699 139.467Z" fill="#CEEAD6"/>
<path d="M291.869 138.651C290.064 117.234 297.426 101.783 306.055 99.8252C310.581 98.7998 316.396 101.293 318.6 106.164C322.281 114.367 316.044 129.958 300.451 143.009C297.567 141.541 294.73 140.096 291.869 138.651Z" fill="#CEEAD6"/>
<path d="M296.09 113.412C297.051 112.084 297.989 110.755 298.95 109.403C295.246 95.141 281.998 83.4419 271.493 81.4843C264.717 80.2259 257.589 82.7661 258.198 87.4737C258.996 93.8825 274.213 104.067 296.09 113.412Z" fill="#CEEAD6"/>
<path d="M284.108 55.5462C288.235 53.6352 294.519 54.5208 297.051 58.0398C300.99 63.5164 296.043 75.6815 283.287 88.1729C282.092 87.5203 280.872 86.8911 279.676 86.2386C273.603 71.5333 277.097 58.8088 284.108 55.5462Z" fill="#CEEAD6"/>
<path d="M281.341 59.2283C281.763 58.7622 282.185 58.2961 282.631 57.83C281.06 52.7729 278.176 49.6734 275.737 49.9064C275.034 49.9763 273.979 50.3492 273.697 51.1649C272.947 53.1924 277.472 56.6648 281.341 59.2283Z" fill="#CEEAD6"/>
<path d="M80.8397 202.739C71.0855 202.739 61.3078 202.739 51.5535 202.739C41.9634 171.348 37.5787 155.5 38.3524 155.244C39.0324 155.011 43.722 166.78 52.3742 190.504C41.0255 146.528 35.7029 124.458 36.3828 124.272C37.0863 124.085 43.8392 145.899 56.6417 189.735C47.075 142.636 42.6668 119.005 43.3937 118.842C44.1206 118.679 49.9591 141.937 60.9326 188.57C57.0403 145.269 55.4927 123.573 56.2665 123.48C57.0403 123.386 60.1588 145.083 65.6221 188.57C69.5614 148.998 71.9061 129.236 72.633 129.306C73.3599 129.376 72.4689 149.627 69.9131 190.131C79.4328 156.083 84.6148 139.164 85.5058 139.373C86.3968 139.606 82.8797 157.295 74.9778 192.438C82.27 172.932 86.5609 163.377 87.8506 163.773C89.3043 164.216 86.9596 177.197 80.8397 202.739Z" fill="#CEEAD6"/>
<mask id="mask1" mask-type="alpha" maskUnits="userSpaceOnUse" x="75" y="19" width="197" height="184">
<path d="M271.681 117.257L173.341 19.1208L75.0013 117.257L76.6427 135.272C78.1199 151.725 78.1199 168.248 76.6427 184.701L75.0013 202.716H271.657L270.016 184.701C268.539 168.248 268.539 151.725 270.016 135.272L271.681 117.257Z" fill="white"/>
</mask>
<g mask="url(#mask1)">
<path d="M271.681 117.257L173.341 19.1208L75.0013 117.257L76.6427 135.272C78.1199 151.725 78.1199 168.248 76.6427 184.701L75.0013 202.716H271.657L270.016 184.701C268.539 168.248 268.539 151.725 270.016 135.272L271.681 117.257Z" fill="#E8F0FE"/>
</g>
<mask id="mask2" mask-type="alpha" maskUnits="userSpaceOnUse" x="75" y="19" width="197" height="184">
<path d="M271.681 117.257L173.341 19.1208L75.0013 117.257L76.6427 135.272C78.1199 151.725 78.1199 168.248 76.6427 184.701L75.0013 202.716H271.657L270.016 184.701C268.539 168.248 268.539 151.725 270.016 135.272L271.681 117.257Z" fill="white"/>
</mask>
<g mask="url(#mask2)">
<path d="M242.348 198.381C256.191 198.381 267.413 187.227 267.413 173.468C267.413 159.709 256.191 148.556 242.348 148.556C228.504 148.556 217.282 159.709 217.282 173.468C217.282 187.227 228.504 198.381 242.348 198.381Z" fill="#FEF7E0"/>
</g>
<path opacity="0.3" d="M173.341 43.0781L91.2975 202.739H248.936L173.341 43.0781Z" fill="#1A73E8"/>
<path d="M109.751 173.375H121.311V184.794C121.311 188.057 123.96 190.69 127.243 190.69H136.88C138.943 190.69 140.608 192.345 140.608 194.396V202.762" stroke="#D2E3FC" stroke-width="0.5125" stroke-linecap="round"/>
<path d="M119.974 178.782C120.66 178.782 121.217 178.229 121.217 177.547C121.217 176.864 120.66 176.311 119.974 176.311C119.288 176.311 118.731 176.864 118.731 177.547C118.731 178.229 119.288 178.782 119.974 178.782Z" stroke="#D2E3FC" stroke-width="0.5125" stroke-linecap="round"/>
<path d="M119.974 181.998C120.66 181.998 121.217 181.445 121.217 180.763C121.217 180.081 120.66 179.528 119.974 179.528C119.288 179.528 118.731 180.081 118.731 180.763C118.731 181.445 119.288 181.998 119.974 181.998Z" stroke="#D2E3FC" stroke-width="0.5125" stroke-linecap="round"/>
<path d="M119.974 185.214C120.66 185.214 121.217 184.661 121.217 183.979C121.217 183.297 120.66 182.744 119.974 182.744C119.288 182.744 118.731 183.297 118.731 183.979C118.731 184.661 119.288 185.214 119.974 185.214Z" stroke="#D2E3FC" stroke-width="0.5125" stroke-linecap="round"/>
<path d="M127.243 190.691V174.377H147.642" stroke="#D2E3FC" stroke-width="0.5125" stroke-linecap="round"/>
<path d="M135.559 175.349L129.109 178.37L130.625 181.575L137.075 178.554L135.559 175.349Z" stroke="#D2E3FC" stroke-width="0.5125" stroke-linecap="round"/>
<path d="M135.707 189.432C137.145 189.432 138.31 188.274 138.31 186.845C138.31 185.417 137.145 184.258 135.707 184.258C134.27 184.258 133.105 185.417 133.105 186.845C133.105 188.274 134.27 189.432 135.707 189.432Z" stroke="#D2E3FC" stroke-width="0.5125" stroke-linecap="round"/>
<path d="M205.558 188.104V158.74H230.131" stroke="#D2E3FC" stroke-width="0.5125" stroke-linecap="round"/>
<path d="M205.558 172.303H218.83C225.559 172.303 231.022 166.873 231.022 160.185V158.74" stroke="#D2E3FC" stroke-width="0.5125" stroke-linecap="round"/>
<path d="M231.022 184.748H224.762V194.839H231.022V184.748Z" stroke="#D2E3FC" stroke-width="0.5125" stroke-linecap="round"/>
<path d="M211.631 172.303V175.239C211.631 175.939 212.194 176.521 212.921 176.521C213.624 176.521 214.21 175.962 214.21 175.239V172.303" stroke="#D2E3FC" stroke-width="0.5125" stroke-linecap="round"/>
<path d="M212.921 176.204C213.404 176.204 213.796 175.814 213.796 175.333C213.796 174.852 213.404 174.462 212.921 174.462C212.438 174.462 212.046 174.852 212.046 175.333C212.046 175.814 212.438 176.204 212.921 176.204Z" stroke="#D2E3FC" stroke-width="0.5125" stroke-linecap="round"/>
<path d="M212.921 174.339C213.404 174.339 213.796 173.949 213.796 173.468C213.796 172.987 213.404 172.597 212.921 172.597C212.438 172.597 212.046 172.987 212.046 173.468C212.046 173.949 212.438 174.339 212.921 174.339Z" stroke="#D2E3FC" stroke-width="0.5125" stroke-linecap="round"/>
<path d="M213.39 158.74V157.411C213.39 155.71 214.773 154.358 216.461 154.358C218.173 154.358 219.533 155.733 219.533 157.411V158.74" stroke="#D2E3FC" stroke-width="0.5125" stroke-linecap="round"/>
<path d="M217.634 194.816H177.186V202.762H217.634V194.816Z" fill="#34A853"/>
<path d="M210.06 194.816H207.012V202.762H210.06V194.816Z" fill="#1E8E3E"/>
<path d="M220.307 193.51H179.859V194.839H220.307V193.51Z" fill="#EA4335"/>
<path d="M220.307 187.451H179.859V188.78H220.307V187.451Z" fill="#EA4335"/>
<path d="M220.307 188.756H179.859V193.487H220.307V188.756Z" fill="white"/>
<path d="M226.502 183.503H207.603V187.442H226.502V183.503Z" fill="#FBBC04"/>
<path d="M93.0326 202.739C93.0326 202.739 76.244 156.852 111.064 136.67C111.064 136.67 115.566 102.412 150.386 80.389C150.386 80.389 159.601 53.3555 173.318 43.0781L93.0326 202.739Z" fill="white"/>
<path d="M173.341 43.0781L243.426 202.739H253.65L173.341 43.0781Z" fill="white"/>
<path d="M154.043 82.6496L148.416 79.1306" stroke="#D2E3FC" stroke-width="0.803922" stroke-linecap="round"/>
<path fill-rule="evenodd" clip-rule="evenodd" d="M149.518 80.389C149.518 80.389 142.156 81.2513 142.156 83.3953C142.156 85.5627 147.619 83.3021 149.518 80.389Z" stroke="#D2E3FC" stroke-width="0.803922" stroke-linecap="round"/>
<path fill-rule="evenodd" clip-rule="evenodd" d="M150.573 79.853C150.573 79.853 145.86 74.0035 148.979 72.6751C150.737 71.8828 151.957 75.2387 150.573 79.853Z" stroke="#D2E3FC" stroke-width="0.803922" stroke-linecap="round"/>
<path d="M109.118 135.132L123.421 144.384" stroke="#D2E3FC" stroke-width="0.803922" stroke-linecap="round"/>
<path fill-rule="evenodd" clip-rule="evenodd" d="M110.759 136.67C110.759 136.67 100.466 140.445 100.325 136.67C100.137 132.359 110.759 136.67 110.759 136.67Z" stroke="#D2E3FC" stroke-width="0.803922" stroke-linecap="round"/>
<path fill-rule="evenodd" clip-rule="evenodd" d="M111.72 136.53C111.767 136.6 111.861 136.554 111.861 136.484C111.673 134.899 110.665 126.999 108.461 127.395C105.647 127.931 110.712 135.132 111.72 136.53Z" stroke="#D2E3FC" stroke-width="0.803922" stroke-linecap="round"/>
<path d="M116.504 169.483H103.326V202.739H116.504V169.483Z" fill="#34A853"/>
<path d="M114.839 163.867H105.014V169.483H114.839V163.867Z" fill="#34A853"/>
<path d="M105.014 163.867V169.483H114.839L105.014 163.867Z" fill="#1E8E3E"/>
<path d="M113.784 161.373H106.046V163.867H113.784V161.373Z" fill="#137333"/>
<path d="M113.784 163.284H106.046V164.155H113.784V163.284Z" fill="#1E8E3E"/>
<path d="M107.5 200.036H104.405C103.819 200.036 103.326 199.57 103.326 198.964V169.483H108.555V198.964C108.555 199.57 108.086 200.036 107.5 200.036Z" fill="#137333"/>
<path d="M121.311 196.214C119.974 196.214 118.895 197.286 118.895 198.614C118.895 199.943 119.974 201.015 121.311 201.015C122.647 201.015 123.726 199.943 123.726 198.614C123.726 197.286 122.647 196.214 121.311 196.214ZM121.311 200.362C120.349 200.362 119.552 199.57 119.552 198.614C119.552 197.659 120.349 196.866 121.311 196.866C122.272 196.866 123.069 197.659 123.069 198.614C123.069 199.57 122.295 200.362 121.311 200.362Z" fill="#137333"/>
<path d="M121.311 195.888H113.714V201.341H121.311V195.888Z" fill="#34A853"/>
<path d="M116.504 195.888H113.714V201.341H116.504V195.888Z" fill="#1E8E3E"/>
<path d="M120.654 201.341H114.394V202.739H120.654V201.341Z" fill="#1E8E3E"/>
<path d="M116.527 201.341H114.394V202.739H116.527V201.341Z" fill="#137333"/>
<path d="M249.757 191.133H242.699H241.972H234.938L231.022 202.739H241.972H242.699H253.649L249.757 191.133Z" fill="#1A73E8"/>
<mask id="mask3" mask-type="alpha" maskUnits="userSpaceOnUse" x="231" y="191" width="23" height="12">
<path d="M249.757 191.133H242.699H241.972H234.938L231.022 202.739H241.972H242.699H253.649L249.757 191.133Z" fill="white"/>
</mask>
<g mask="url(#mask3)">
<path d="M249.757 191.133H242.699H241.972H234.938L231.022 202.739H241.972H242.699H253.649L249.757 191.133Z" fill="#1A73E8"/>
</g>
<mask id="mask4" mask-type="alpha" maskUnits="userSpaceOnUse" x="231" y="191" width="23" height="12">
<path d="M249.757 191.133H242.699H241.972H234.938L231.022 202.739H241.972H242.699H253.649L249.757 191.133Z" fill="white"/>
</mask>
<g mask="url(#mask4)">
<path d="M231.022 202.739L241.972 191.133H230.319L231.022 202.739Z" fill="#1967D2"/>
</g>
<path d="M235.876 191.133H242.019H242.653H248.819L252.219 169.46H242.653H242.019H232.453L235.876 191.133Z" fill="#FEEFC3"/>
<mask id="mask5" mask-type="alpha" maskUnits="userSpaceOnUse" x="232" y="169" width="21" height="23">
<path d="M235.876 191.133H242.019H242.653H248.819L252.219 169.46H242.653H242.019H232.453L235.876 191.133Z" fill="white"/>
</mask>
<g mask="url(#mask5)">
<path d="M235.876 191.133H242.019H242.653H248.819L252.219 169.46H242.653H242.019H232.453L235.876 191.133Z" fill="#FEEFC3"/>
</g>
<mask id="mask6" mask-type="alpha" maskUnits="userSpaceOnUse" x="232" y="169" width="21" height="23">
<path d="M235.876 191.133H242.019H242.653H248.819L252.219 169.46H242.653H242.019H232.453L235.876 191.133Z" fill="white"/>
</mask>
<g mask="url(#mask6)">
<path opacity="0.4" d="M240.988 191.063L233.438 169.46H232.453L235.876 191.133L240.988 191.063Z" fill="#FBBC04"/>
</g>
<path d="M242.348 154.988C240.05 154.988 238.197 156.829 238.197 159.113C238.197 161.396 240.05 163.238 242.348 163.238C244.646 163.238 246.498 161.396 246.498 159.113C246.498 156.829 244.622 154.988 242.348 154.988ZM242.348 162.049C240.73 162.049 239.417 160.744 239.417 159.136C239.417 157.528 240.73 156.223 242.348 156.223C243.966 156.223 245.279 157.528 245.279 159.136C245.279 160.744 243.966 162.049 242.348 162.049Z" fill="#1967D2"/>
<path d="M237.236 161.956L232.476 167.129H252.219L247.459 161.956C244.692 158.973 239.979 158.973 237.236 161.956Z" fill="#1A73E8"/>
<mask id="mask7" mask-type="alpha" maskUnits="userSpaceOnUse" x="232" y="159" width="21" height="9">
<path d="M237.236 161.956L232.476 167.129H252.219L247.459 161.956C244.692 158.973 239.979 158.973 237.236 161.956Z" fill="white"/>
</mask>
<g mask="url(#mask7)">
<path d="M237.236 161.956L232.476 167.129H252.219L247.459 161.956C244.692 158.973 239.979 158.973 237.236 161.956Z" fill="#1A73E8"/>
</g>
<path d="M242.348 190.061C243.617 190.061 244.646 187.682 244.646 184.748C244.646 181.813 243.617 179.434 242.348 179.434C241.079 179.434 240.05 181.813 240.05 184.748C240.05 187.682 241.079 190.061 242.348 190.061Z" fill="#EA4335"/>
<path d="M242.348 190.691C243.086 190.691 243.684 189.292 243.684 187.568C243.684 185.843 243.086 184.445 242.348 184.445C241.609 184.445 241.011 185.843 241.011 187.568C241.011 189.292 241.609 190.691 242.348 190.691Z" fill="#FBBC04"/>
<path d="M253.626 167.13H231.022V169.46H253.626V167.13Z" fill="#1967D2"/>
<path d="M252.5 195.515H248.772C248.467 195.515 248.209 195.258 248.209 194.955V194.21C248.209 193.907 248.467 193.65 248.772 193.65H252.5V195.515Z" fill="#174EA6"/>
<path d="M253.18 192.229H251.938V196.936H253.18V192.229Z" fill="#1967D2"/>
<path d="M100.935 190.061H95.9167V195.887H100.935V190.061Z" fill="#EA4335"/>
<path d="M99.0353 190.061H97.5815V195.887H99.0353V190.061Z" fill="#FEEFC3"/>
<mask id="mask8" mask-type="alpha" maskUnits="userSpaceOnUse" x="91" y="175" width="5" height="9">
<path d="M95.6822 175.519H91.2975V183.629H95.6822V175.519Z" fill="white"/>
</mask>
<g mask="url(#mask8)">
<path d="M95.6822 175.519H91.2975V183.629H95.6822V175.519Z" fill="#FBBC04"/>
</g>
<mask id="mask9" mask-type="alpha" maskUnits="userSpaceOnUse" x="91" y="175" width="5" height="9">
<path d="M95.6822 175.519H91.2975V183.629H95.6822V175.519Z" fill="white"/>
</mask>
<g mask="url(#mask9)">
<path opacity="0.4" d="M96.3388 183.629L90.6644 181.182V183.629H96.3388Z" fill="#FBBC04"/>
</g>
<path d="M97.1594 183.629H89.8438V189.665H97.1594V183.629Z" fill="#FEEFC3"/>
<mask id="mask10" mask-type="alpha" maskUnits="userSpaceOnUse" x="86" y="188" width="12" height="12">
<path d="M97.1595 199.197H86.7018V190.388C86.7018 189.292 87.5928 188.407 88.6948 188.407H97.1595V199.197Z" fill="white"/>
</mask>
<g mask="url(#mask10)">
<path d="M97.1595 199.197H86.7018V190.388C86.7018 189.292 87.5928 188.407 88.6948 188.407H97.1595V199.197Z" fill="#FBBC04"/>
</g>
<mask id="mask11" mask-type="alpha" maskUnits="userSpaceOnUse" x="86" y="188" width="12" height="12">
<path d="M97.1595 199.197H86.7018V190.388C86.7018 189.292 87.5928 188.407 88.6948 188.407H97.1595V199.197Z" fill="white"/>
</mask>
<g mask="url(#mask11)">
<path d="M86.3031 197.239C89.8203 195.421 94.0409 195.421 97.558 197.239" stroke="#EA4335" stroke-width="0.5125" stroke-linecap="round"/>
</g>
<path d="M97.1594 175.519H89.8438V177.384H97.1594V175.519Z" fill="#FEEFC3"/>
<path d="M97.7925 199.197H85.459V202.739H97.7925V199.197Z" fill="#FEEFC3"/>
<mask id="mask12" mask-type="alpha" maskUnits="userSpaceOnUse" x="100" y="175" width="6" height="9">
<path d="M105.32 175.521H100.935V183.631H105.32V175.521Z" fill="white"/>
</mask>
<g mask="url(#mask12)">
<path d="M105.315 175.505H100.93V183.615H105.315V175.505Z" fill="#FBBC04"/>
</g>
<mask id="mask13" mask-type="alpha" maskUnits="userSpaceOnUse" x="100" y="175" width="6" height="9">
<path d="M105.315 175.505H100.93V183.615H105.315V175.505Z" fill="white"/>
</mask>
<g mask="url(#mask13)">
<path opacity="0.4" d="M105.976 183.629L100.278 181.182V183.629H105.976Z" fill="#FBBC04"/>
</g>
<path d="M106.792 183.601H99.476V189.637H106.792V183.601Z" fill="#FEEFC3"/>
<mask id="mask14" mask-type="alpha" maskUnits="userSpaceOnUse" x="99" y="188" width="11" height="12">
<path d="M99.4573 199.197H109.915V190.388C109.915 189.292 109.024 188.407 107.922 188.407H99.4573V199.197Z" fill="white"/>
</mask>
<g mask="url(#mask14)">
<path d="M99.4573 199.197H109.915V190.388C109.915 189.292 109.024 188.407 107.922 188.407H99.4573V199.197Z" fill="#FBBC04"/>
</g>
<mask id="mask15" mask-type="alpha" maskUnits="userSpaceOnUse" x="99" y="188" width="11" height="12">
<path d="M99.4573 199.197H109.915V190.388C109.915 189.292 109.024 188.407 107.922 188.407H99.4573V199.197Z" fill="white"/>
</mask>
<g mask="url(#mask15)">
<path d="M99.0586 197.239C102.576 195.421 106.796 195.421 110.313 197.239" stroke="#EA4335" stroke-width="0.5125" stroke-linecap="round"/>
</g>
<path d="M106.792 175.514H99.476V177.379H106.792V175.514Z" fill="#FEEFC3"/>
<path d="M111.165 199.211H98.8312V202.753H111.165V199.211Z" fill="#FEEFC3"/>
<path d="M97.7925 202.017H85.459V202.887H97.7925V202.017Z" fill="#EA4335"/>
<path d="M111.165 202.014H98.8312V202.885H111.165V202.014Z" fill="#EA4335"/>
<path d="M168.487 86.7978C170.469 86.7978 172.075 85.2014 172.075 83.2322C172.075 81.2629 170.469 79.6665 168.487 79.6665C166.506 79.6665 164.9 81.2629 164.9 83.2322C164.9 85.2014 166.506 86.7978 168.487 86.7978Z" fill="#491104"/>
<path d="M170.152 82.7429L158.663 95.5372C157.35 96.9821 157.889 99.2892 159.695 100.035L167.479 103.274C168.722 103.787 170.105 102.948 170.176 101.596L171.348 83.2323C171.395 82.603 170.598 82.2535 170.152 82.7429Z" fill="#491104"/>
<path d="M170.176 82.7429L180.071 93.7893C182.157 96.1198 181.313 99.7787 178.429 100.967L172.849 103.274C171.606 103.787 170.222 102.948 170.152 101.596L168.98 83.2323C168.956 82.603 169.754 82.2535 170.176 82.7429Z" fill="#491104"/>
<mask id="mask16" mask-type="alpha" maskUnits="userSpaceOnUse" x="162" y="99" width="13" height="9">
<path d="M174.374 99.1266H162.603V107.68H174.374V99.1266Z" fill="white"/>
</mask>
<g mask="url(#mask16)">
<path d="M165.37 96.8616L163.172 108.37L171.615 109.967L173.812 98.4584L165.37 96.8616Z" fill="#A73D22"/>
</g>
<mask id="mask17" mask-type="alpha" maskUnits="userSpaceOnUse" x="162" y="99" width="13" height="9">
<path d="M174.378 99.1392H162.607V107.692H174.378V99.1392Z" fill="white"/>
</mask>
<g mask="url(#mask17)">
<path d="M171.043 87.73C168.722 87.73 166.705 89.3147 166.166 91.5753L164.783 97.3549C163.727 101.736 166.823 106.001 171.043 106.001C175.264 106.001 178.359 101.736 177.304 97.3549L175.92 91.5753C175.381 89.3147 173.364 87.73 171.043 87.73Z" fill="#491104"/>
</g>
<mask id="mask18" mask-type="alpha" maskUnits="userSpaceOnUse" x="163" y="85" width="14" height="19">
<path d="M170.457 85.586C168.136 85.586 166.119 87.1707 165.58 89.4313L164.196 95.2108C163.141 99.5921 166.236 103.857 170.457 103.857C174.678 103.857 177.773 99.5921 176.718 95.2108L175.334 89.4313C174.795 87.1707 172.778 85.586 170.457 85.586Z" fill="white"/>
</mask>
<g mask="url(#mask18)">
<path d="M170.457 85.586C168.136 85.586 166.119 87.1707 165.58 89.4313L164.196 95.2108C163.141 99.5921 166.236 103.857 170.457 103.857C174.678 103.857 177.773 99.5921 176.718 95.2108L175.334 89.4313C174.795 87.1707 172.778 85.586 170.457 85.586Z" fill="#A73D22"/>
</g>
<mask id="mask19" mask-type="alpha" maskUnits="userSpaceOnUse" x="163" y="85" width="14" height="19">
<path d="M170.457 85.586C168.136 85.586 166.119 87.1707 165.58 89.4313L164.196 95.2108C163.141 99.5921 166.236 103.857 170.457 103.857C174.678 103.857 177.773 99.5921 176.718 95.2108L175.334 89.4313C174.795 87.1707 172.778 85.586 170.457 85.586Z" fill="white"/>
</mask>
<g mask="url(#mask19)">
<path d="M165.205 93.5562C169.983 93.5562 173.857 89.7061 173.857 84.9568C173.857 80.2074 169.983 76.3573 165.205 76.3573C160.426 76.3573 156.552 80.2074 156.552 84.9568C156.552 89.7061 160.426 93.5562 165.205 93.5562Z" fill="#491104"/>
</g>
<mask id="mask20" mask-type="alpha" maskUnits="userSpaceOnUse" x="163" y="85" width="14" height="19">
<path d="M170.457 85.586C168.136 85.586 166.119 87.1707 165.58 89.4313L164.196 95.2108C163.141 99.5921 166.236 103.857 170.457 103.857C174.678 103.857 177.773 99.5921 176.718 95.2108L175.334 89.4313C174.795 87.1707 172.778 85.586 170.457 85.586Z" fill="white"/>
</mask>
<g mask="url(#mask20)">
<path d="M179.719 94.3253C184.497 94.3253 188.371 90.4752 188.371 85.7258C188.371 80.9765 184.497 77.1263 179.719 77.1263C174.94 77.1263 171.067 80.9765 171.067 85.7258C171.067 90.4752 174.94 94.3253 179.719 94.3253Z" fill="#491104"/>
</g>
<path d="M163.938 93.1834C163.54 93.2999 163.305 93.6961 163.399 94.1156L163.798 95.5372C163.892 95.91 164.267 96.1198 164.642 96.0266L165.439 95.8168L164.853 93.7194C164.736 93.3232 164.337 93.0902 163.938 93.1834Z" fill="#A73D22"/>
<path d="M173.341 99.1494C173.341 99.1494 172.544 98.357 171.958 99.1494C171.958 99.1494 171.418 98.3337 170.457 99.1494C170.457 99.1494 171.911 100.99 173.341 99.1494Z" fill="#491104"/>
<path d="M160.559 104.115L160.22 109.471L175.667 110.442L176.007 105.085L160.559 104.115Z" fill="#D93025"/>
<path d="M167.948 163.284L140.702 169.623C131.885 171.674 123.421 165.032 123.421 156.013V126.23C123.421 116.162 131.627 108.028 141.733 108.028H185.276C199.391 108.028 210.834 119.401 210.834 133.431V157.388C210.834 167.083 203.518 175.239 193.834 176.335L182.087 177.686H160.374L167.948 163.284Z" fill="#EA4335"/>
<path d="M182.533 177.803L181.688 171.371" stroke="#D93025" stroke-width="0.535948" stroke-linecap="round"/>
<path d="M174.818 138.325L174.068 141.401L164.712 136.857L166.143 130.984C166.143 130.984 171.536 133.128 173.998 135.505C174.771 136.227 175.076 137.299 174.818 138.325Z" fill="white"/>
<path d="M174.818 138.325L174.068 141.401L184.479 141.611L185.909 135.738C185.909 135.738 180.117 135.202 176.835 136.181C175.826 136.484 175.076 137.299 174.818 138.325Z" fill="white"/>
<path d="M175.146 138.395L174.396 141.471L165.674 137.09L167.104 131.217C167.104 131.217 172.145 133.268 174.42 135.598C175.123 136.297 175.381 137.393 175.146 138.395Z" fill="white"/>
<path d="M174.513 138.255L173.763 141.331L183.541 141.378L184.971 135.505C184.971 135.505 179.555 135.062 176.436 136.087C175.475 136.39 174.748 137.229 174.513 138.255Z" fill="white"/>
<path d="M174.678 138.931L173.998 141.681L164.407 137.323L165.697 132.032C165.697 132.032 171.207 134.13 173.787 136.344C174.56 137.02 174.889 138.022 174.678 138.931Z" fill="#E8F0FE"/>
<path d="M174.678 138.931L173.998 141.681L184.549 142.147L185.839 136.857C185.839 136.857 179.977 136.227 176.671 137.02C175.639 137.276 174.889 138.022 174.678 138.931Z" fill="#E8F0FE"/>
<path d="M170.996 152.261L161.57 148.043L165.275 132.755L174.701 136.996L170.996 152.261Z" fill="#1E8E3E"/>
<path d="M171.84 152.447L182.157 152.96L185.862 137.695L175.545 137.183L171.84 152.447Z" fill="#34A853"/>
<path d="M174.707 136.988L171.001 152.278L171.851 152.482L175.557 137.192L174.707 136.988Z" fill="#1E8E3E"/>
<path d="M164.407 151.375L170.129 152.261V148.206C170.129 147.88 170.41 147.6 170.738 147.6C171.043 147.6 171.301 147.833 171.348 148.136C171.465 149.138 171.723 151.212 171.723 151.212L181.337 151.632C181.712 151.655 181.993 152.005 181.923 152.354C181.853 152.657 181.595 152.867 181.29 152.844C179.766 152.797 175.428 152.634 175.428 152.634L182.181 152.96L181.923 154.125C181.876 154.312 181.712 154.452 181.501 154.452C181.29 154.452 181.126 154.591 181.079 154.778L181.032 155.034C180.985 155.221 180.821 155.36 180.61 155.36H180.024C179.836 155.36 179.672 155.5 179.625 155.687L179.531 156.106C179.484 156.246 179.391 156.363 179.226 156.409L177.022 157.015C174.935 157.574 172.708 157.318 170.832 156.246L165.674 155.617L164.407 151.375Z" fill="#A73D22"/>
<path d="M141.642 195.223H129.543V202.751H141.642V195.223Z" fill="#E8F0FE"/>
<path opacity="0.4" d="M129.541 202.739V195.212H141.64V202.739H129.541Z" fill="url(#paint3_linear)"/>
<mask id="mask21" mask-type="alpha" maskUnits="userSpaceOnUse" x="135" y="176" width="69" height="27">
<path d="M135.59 183.629V202.762H190.599C197.867 202.762 203.776 196.89 203.776 189.665V189.642C203.776 186.496 202.674 183.606 200.798 181.345C197.961 177.873 193.436 176.242 188.957 176.801L135.59 183.629Z" fill="white"/>
</mask>
<g mask="url(#mask21)">
<path d="M135.59 183.629V202.762H190.599C197.867 202.762 203.776 196.89 203.776 189.665V189.642C203.776 186.496 202.674 183.606 200.798 181.345C197.961 177.873 193.436 176.242 188.957 176.801L135.59 183.629Z" fill="#1967D2"/>
</g>
<mask id="mask22" mask-type="alpha" maskUnits="userSpaceOnUse" x="135" y="176" width="69" height="27">
<path d="M135.59 183.629V202.762H190.599C197.867 202.762 203.776 196.89 203.776 189.665V189.642C203.776 186.496 202.674 183.606 200.798 181.345C197.961 177.873 193.436 176.242 188.957 176.801L135.59 183.629Z" fill="white"/>
</mask>
<g mask="url(#mask22)">
<path opacity="0.39" d="M177.186 176.684L173.763 202.762H135.59V182.836L177.186 176.684Z" fill="#174EA6"/>
</g>
<path d="M181.688 174.377L182.11 177.663L179.344 178.036C178.242 178.176 177.374 179.038 177.21 180.11L176.952 181.532C176.905 181.765 176.717 181.951 176.483 181.998C176.131 182.068 175.803 181.765 175.826 181.415L175.991 178.502L168.112 179.481L167.901 177.85L171.489 176.078C174.068 174.797 176.999 174.377 179.836 174.843L181.688 174.377Z" fill="#A73D22"/>
<mask id="mask23" mask-type="alpha" maskUnits="userSpaceOnUse" x="134" y="176" width="27" height="27">
<path d="M160.398 176.055V202.739H138.545C136.528 202.739 134.887 201.108 134.887 199.104C134.887 197.099 136.528 195.468 138.545 195.468H147.947C150.644 195.468 152.824 193.301 152.824 190.621V176.055H160.398Z" fill="white"/>
</mask>
<g mask="url(#mask23)">
<path d="M160.398 176.055V202.739H138.545C136.528 202.739 134.887 201.108 134.887 199.104C134.887 197.099 136.528 195.468 138.545 195.468H148.838C151.042 195.468 152.824 193.697 152.824 191.506V176.055H160.398Z" fill="white"/>
</g>
<mask id="mask24" mask-type="alpha" maskUnits="userSpaceOnUse" x="134" y="176" width="27" height="27">
<path d="M160.398 176.055V202.739H138.545C136.528 202.739 134.887 201.108 134.887 199.104C134.887 197.099 136.528 195.468 138.545 195.468H147.947C150.644 195.468 152.824 193.301 152.824 190.621V176.055H160.398Z" fill="white"/>
</mask>
<g mask="url(#mask24)">
<path d="M153.715 204.464C153.715 204.464 152.965 196.354 162.391 196.354" stroke="#D2E3FC" stroke-width="0.89171"/>
</g>
<mask id="mask25" mask-type="alpha" maskUnits="userSpaceOnUse" x="134" y="176" width="27" height="27">
<path d="M160.398 176.055V202.739H138.545C136.528 202.739 134.887 201.108 134.887 199.104C134.887 197.099 136.528 195.468 138.545 195.468H147.947C150.644 195.468 152.824 193.301 152.824 190.621V176.055H160.398Z" fill="white"/>
</mask>
<g mask="url(#mask25)">
<path d="M134.488 204.137C137.35 204.137 139.67 201.831 139.67 198.987C139.67 196.142 137.35 193.837 134.488 193.837C131.626 193.837 129.306 196.142 129.306 198.987C129.306 201.831 131.626 204.137 134.488 204.137Z" stroke="#D2E3FC" stroke-width="0.89171"/>
</g>
<path d="M129.541 203.555C132.079 203.555 134.136 201.51 134.136 198.987C134.136 196.464 132.079 194.419 129.541 194.419C127.003 194.419 124.945 196.464 124.945 198.987C124.945 201.51 127.003 203.555 129.541 203.555Z" fill="white"/>
<path d="M170.129 192.602H143.75V133.198C143.75 128.84 147.314 125.321 151.675 125.321H162.18C166.565 125.321 170.105 128.863 170.105 133.198V192.602H170.129Z" fill="#1A73E8"/>
<path d="M143.75 168.924C143.75 168.924 144.571 192.602 170.129 192.602H143.75V168.924Z" fill="#1967D2"/>
<path d="M76.5254 56.2453C77.7945 56.2453 78.8233 55.2227 78.8233 53.9614C78.8233 52.7 77.7945 51.6775 76.5254 51.6775C75.2563 51.6775 74.2275 52.7 74.2275 53.9614C74.2275 55.2227 75.2563 56.2453 76.5254 56.2453Z" fill="#CEEAD6"/>
<path d="M106.046 75.5417C106.681 75.5417 107.195 75.0304 107.195 74.3997C107.195 73.769 106.681 73.2578 106.046 73.2578C105.411 73.2578 104.897 73.769 104.897 74.3997C104.897 75.0304 105.411 75.5417 106.046 75.5417Z" fill="#CEEAD6"/>
<path d="M126.047 33.057C126.682 33.057 127.196 32.5457 127.196 31.9151C127.196 31.2844 126.682 30.7731 126.047 30.7731C125.412 30.7731 124.898 31.2844 124.898 31.9151C124.898 32.5457 125.412 33.057 126.047 33.057Z" fill="#CEEAD6"/>
<path d="M258.034 97.7511C258.824 97.7511 259.464 97.1146 259.464 96.3295C259.464 95.5443 258.824 94.9079 258.034 94.9079C257.244 94.9079 256.604 95.5443 256.604 96.3295C256.604 97.1146 257.244 97.7511 258.034 97.7511Z" fill="#CEEAD6"/>
<path d="M284.436 127.092C285.421 127.092 286.218 126.299 286.218 125.321C286.218 124.342 285.421 123.549 284.436 123.549C283.452 123.549 282.654 124.342 282.654 125.321C282.654 126.299 283.452 127.092 284.436 127.092Z" fill="#CEEAD6"/>
<path d="M75.0013 202.739C59.1975 202.739 45.551 191.786 42.2214 176.428C36.5705 150.257 30.6851 105.045 36.6643 43.0781H23.2287C23.2287 43.0781 13.8731 153.916 23.2287 207.959H302.092C302.092 207.959 371.662 156.199 324.79 72.7217C324.79 72.7217 329.573 142.986 309.009 171.348C309.009 171.348 334.45 122.92 298.388 88.1495C298.388 88.1495 311.214 156.526 278.574 195.188C278.574 195.188 291.611 179.411 282.654 158.693C282.654 158.693 275.784 202.693 254.165 202.693L75.0013 202.739Z" fill="white"/>
<path d="M44.7303 202.599C44.7303 202.599 39.6187 144.5 66.7243 113.901H62.6444C62.6444 113.901 43.1593 140.003 36.9222 186.216L44.7303 202.599Z" fill="white"/>
<path d="M82.9735 116.255C83.2314 112.247 85.0603 108.471 88.0617 105.791C89.0465 104.906 89.9375 103.904 90.6878 102.738C92.165 100.478 92.9622 97.9841 93.1264 95.4905C93.3139 92.6007 94.2753 89.8042 95.9166 87.4271C96.1511 87.1008 96.3621 86.7512 96.5497 86.4017C99.2228 81.531 97.8159 75.3086 93.3374 72.0226C88.0382 68.154 80.6522 69.529 77.1116 74.9357C77.0178 75.0755 76.924 75.2387 76.8302 75.3785C75.3999 77.8255 73.1724 79.6899 70.6635 80.9949C68.4359 82.1602 66.4663 83.908 64.9891 86.1686C64.2622 87.2872 63.676 88.4758 63.2774 89.6876C62.0112 93.4863 59.4086 96.7723 55.8211 98.5901C52.7963 100.128 50.1467 102.529 48.2709 105.675C43.3938 113.901 45.7151 124.645 53.5701 130.168C62.2692 136.274 74.2275 133.943 79.9722 125.158C81.8011 122.384 82.7625 119.308 82.9735 116.255Z" fill="white"/>
<path d="M68.2718 38.72C70.7338 35.9934 72.7503 32.7773 74.2275 29.1884C80.957 12.6653 73.0786 -6.42134 56.6183 -13.4361C39.478 -20.7538 19.7116 -12.5971 12.7945 4.53191C11.3407 8.14415 10.567 11.8496 10.4263 15.5318C10.1683 21.9406 6.62774 27.7202 1.23476 31.2392C-5.65886 35.737 -11.2629 42.309 -14.5221 50.5355C-22.6585 71.1603 -12.6463 94.7214 7.91736 103.274C29.161 112.107 53.4997 101.946 62.0816 80.7852C65.3643 72.6518 65.8567 64.0989 63.9809 56.1753C62.5036 49.9762 64.0512 43.4509 68.2718 38.72Z" fill="white"/>
<path d="M268.961 200.968C268.961 200.968 282.467 187.288 282.983 167.13" stroke="#CEEAD6" stroke-width="0.535948" stroke-linecap="round"/>
<path d="M287.461 196.936C287.461 196.936 315.973 168.318 305.61 106.654" stroke="#CEEAD6" stroke-width="0.535948" stroke-linecap="round"/>
<path d="M296.535 183.513C296.535 183.513 312.878 160.884 311.847 132.778" stroke="#CEEAD6" stroke-width="0.535948" stroke-linecap="round"/>
<path d="M304.203 196.936C304.203 196.936 331.59 166.5 331.59 115.486" stroke="#CEEAD6" stroke-width="0.535948" stroke-linecap="round"/>
<path d="M46.2075 110.942C46.2075 110.942 47.9427 96.7723 66.7243 96.0499" stroke="#CEEAD6" stroke-width="0.535948" stroke-linecap="round"/>
<path d="M66.7244 113.901C66.7244 113.901 83.6536 113.226 90.6879 102.738" stroke="#CEEAD6" stroke-width="0.535948" stroke-linecap="round"/>
<path d="M49.7247 126.486C49.7247 126.486 52.984 132.778 62.3161 133.454" stroke="#CEEAD6" stroke-width="0.535948" stroke-linecap="round"/>
<path d="M68.1311 82.6496C68.1311 82.6496 75.6344 77.1496 84.2162 79.1305" stroke="#CEEAD6" stroke-width="0.535948" stroke-linecap="round"/>
<path d="M17.6951 91.9715C17.6951 91.9715 41.0724 95.5371 54.8597 76.1942" stroke="#CEEAD6" stroke-width="0.535948" stroke-linecap="round"/>
<path d="M19.0551 106.141C19.0551 106.141 34.4368 108.192 46.2075 99.9418" stroke="#CEEAD6" stroke-width="0.535948" stroke-linecap="round"/>
<path d="M76.3613 12.6886C76.3613 12.6886 80.1833 36.9489 51.8115 48.8343" stroke="#CEEAD6" stroke-width="0.535948" stroke-linecap="round"/>
<path d="M19.0552 20.9618C19.0552 20.9618 17.6717 35.6904 29.6535 40.8408" stroke="#CEEAD6" stroke-width="0.535948" stroke-linecap="round"/>
<path d="M47.3329 194.816C47.3329 194.816 32.6312 182.977 32.6312 156.2" stroke="#CEEAD6" stroke-width="0.535948" stroke-linecap="round"/>
</g>
<defs>
<linearGradient id="paint0_linear" x1="101.486" y1="-27.8282" x2="101.486" y2="287.185" gradientUnits="userSpaceOnUse">
<stop offset="0.1454" stop-color="white" stop-opacity="0"/>
<stop offset="0.3188" stop-color="#CEEAD6"/>
</linearGradient>
<linearGradient id="paint1_linear" x1="251.445" y1="-27.8282" x2="251.445" y2="287.185" gradientUnits="userSpaceOnUse">
<stop offset="0.2081" stop-color="white" stop-opacity="0"/>
<stop offset="0.5493" stop-color="#CEEAD6"/>
</linearGradient>
<linearGradient id="paint2_linear" x1="179.59" y1="121.674" x2="179.59" y2="231.528" gradientUnits="userSpaceOnUse">
<stop offset="0.1667" stop-color="white" stop-opacity="0"/>
<stop offset="0.5634" stop-color="#CEEAD6"/>
</linearGradient>
<linearGradient id="paint3_linear" x1="124.36" y1="198.975" x2="136.459" y2="198.975" gradientUnits="userSpaceOnUse">
<stop offset="0.0604" stop-color="white" stop-opacity="0"/>
<stop offset="0.2654" stop-color="#FDFDFF" stop-opacity="0.2455"/>
<stop offset="0.3835" stop-color="#F4F8FE" stop-opacity="0.3869"/>
<stop offset="0.4795" stop-color="#E6F0FD" stop-opacity="0.5018"/>
<stop offset="0.5637" stop-color="#D2E4FB" stop-opacity="0.6026"/>
<stop offset="0.6401" stop-color="#B9D4F8" stop-opacity="0.6941"/>
<stop offset="0.711" stop-color="#99C1F5" stop-opacity="0.7789"/>
<stop offset="0.7775" stop-color="#73A9F1" stop-opacity="0.8586"/>
<stop offset="0.8389" stop-color="#498FED" stop-opacity="0.9321"/>
<stop offset="0.8956" stop-color="#1A73E8"/>
</linearGradient>
</defs>
</svg>
