<svg width="200" height="125" xmlns="http://www.w3.org/2000/svg"><g fill="none" fill-rule="evenodd"><path d="M199.54 40.753h-.008c-.017-1.501-.928-2.933-2.785-4.006l-59.92-34.594c-4.136-2.388-11.361-2.089-16.138.669L4.009 70.187C1.308 71.747-.03 73.76.064 75.644H.057v8.784h.025c.121 1.399 1.027 2.72 2.768 3.726l59.92 34.594c4.136 2.388 11.362 2.089 16.138-.669l116.68-67.365c2.632-1.52 3.962-3.466 3.944-5.308h.008v-8.653z" fill="#BDC1C6"/><path d="M62.77 114.1L2.85 79.504c-4.137-2.388-3.618-6.56 1.16-9.318L120.69 2.822c4.776-2.758 12.001-3.058 16.138-.67l59.92 34.596c4.136 2.388 3.617 6.56-1.159 9.317L78.91 113.43c-4.777 2.758-12.003 3.058-16.14.67" fill="#DADCE0"/><path fill="#FFF" d="M77.68 109.816l-67.41-38.92 111.648-64.46 67.41 38.92z"/><path fill="#DFDFDF" d="M158.578 54.46l-52.43-30.27 2.791-1.611 52.43 30.27zM165.09 50.7l-52.429-30.27 2.79-1.611 52.43 30.27zM171.603 46.94l-52.43-30.27 2.792-1.611 52.43 30.27zM140.83 51.734L99.635 27.95l2.791-1.611 41.195 23.784zM118.5 64.626L77.306 40.842l2.791-1.611 41.195 23.784zM136.248 67.352l-52.43-30.27 2.791-1.611 52.43 30.27zM142.76 63.592l-52.428-30.27 2.79-1.612 52.43 30.27z"/><path fill="#EE675C" d="M67.41 93.6L0 54.68l46.985-27.126 67.41 38.918z"/><path fill="#FFF" d="M88.426 72.504l-29.96-17.297 2.792-1.611 29.96 17.297zM55.424 48.316c-4.111 2.373-10.797 2.36-14.934-.028-4.136-2.388-4.157-6.248-.046-8.621 4.11-2.374 10.797-2.362 14.933.027 4.136 2.388 4.157 6.248.047 8.622M94.94 68.744L64.98 51.447l2.79-1.611 29.96 17.297zM67.027 84.86l-29.96-17.298 2.791-1.611 29.96 17.297zM34.024 60.67c-4.11 2.374-10.796 2.361-14.933-.027-4.136-2.388-4.157-6.248-.047-8.621 4.111-2.374 10.797-2.362 14.933.027 4.137 2.388 4.158 6.248.047 8.621M73.54 81.1L43.58 63.801l2.791-1.611 29.96 17.297z"/></g></svg>