<svg width="386" height="162" xmlns="http://www.w3.org/2000/svg"><defs><linearGradient x1="50%" y1="6.614%" x2="50%" y2="97.543%" id="a"><stop stop-color="#FFF" stop-opacity="0" offset="0%"/><stop stop-color="#FFF" offset="100%"/></linearGradient><linearGradient x1="3.51%" y1="72.831%" x2="97.997%" y2="26.429%" id="b"><stop stop-color="#80868B" offset="0%"/><stop stop-color="#9BA1A7" offset="100%"/></linearGradient><linearGradient x1="49.716%" y1="93.125%" x2="50.555%" y2="-34.03%" id="c"><stop stop-color="#FFF" offset="0%"/><stop stop-color="#979DA5" offset="100%"/></linearGradient><linearGradient x1="50.449%" y1="-11.696%" x2="49.808%" y2="77.732%" id="d"><stop stop-color="#FFF" stop-opacity="0" offset="37.83%"/><stop stop-color="#F9F9FA" stop-opacity=".059" offset="37.94%"/><stop stop-color="#E2E4E6" stop-opacity=".279" offset="38.41%"/><stop stop-color="#CED0D4" stop-opacity=".475" offset="38.95%"/><stop stop-color="#BCC0C5" stop-opacity=".64" offset="39.54%"/><stop stop-color="#AFB3B9" stop-opacity=".773" offset="40.21%"/><stop stop-color="#A4A9B0" stop-opacity=".876" offset="40.99%"/><stop stop-color="#9CA2AA" stop-opacity=".948" offset="41.95%"/><stop stop-color="#989EA6" stop-opacity=".989" offset="43.31%"/><stop stop-color="#979DA5" offset="47.06%"/><stop stop-color="#BFC3C8" stop-opacity=".615" offset="56.76%"/><stop stop-color="#E2E3E6" stop-opacity=".282" offset="66.15%"/><stop stop-color="#F7F7F8" stop-opacity=".077" offset="73.12%"/><stop stop-color="#FFF" stop-opacity="0" offset="76.91%"/></linearGradient><linearGradient x1="0%" y1="49.997%" x2="99.999%" y2="49.997%" id="e"><stop stop-color="#202124" stop-opacity="0" offset="0%"/><stop stop-color="#202124" offset="60.52%"/></linearGradient><linearGradient x1="50%" y1="8.592%" x2="50%" y2="100.969%" id="f"><stop stop-color="#80868B" offset="0%"/><stop stop-color="#9AA0A6" offset="100%"/></linearGradient><linearGradient x1="0%" y1="49.994%" x2="99.999%" y2="49.994%" id="g"><stop stop-color="#202124" stop-opacity="0" offset="0%"/><stop stop-color="#202124" offset="60.52%"/></linearGradient><linearGradient x1="0%" y1="50%" x2="100%" y2="50%" id="h"><stop stop-color="#F9AB00" offset="0%"/><stop stop-color="#FBBC04" offset="100%"/></linearGradient><linearGradient x1="0%" y1="50%" x2="100%" y2="50%" id="i"><stop stop-color="#F9AB00" offset="0%"/><stop stop-color="#FBBC04" offset="100%"/></linearGradient><linearGradient x1="0%" y1="49.998%" x2="100%" y2="49.998%" id="j"><stop stop-color="#F9AB00" offset="0%"/><stop stop-color="#FBBC04" offset="100%"/></linearGradient></defs><g fill="none" fill-rule="evenodd"><path d="M159.348 84.775c-3.555-30.48-26.337-57.223-26.337-57.223l20.473-13.934s22.781 26.744 26.336 57.223l-20.472 13.934zM231.028.21c23.36 32.482 66.264 48.526 66.264 48.526l-14.503 28.85s-42.904-16.044-66.264-48.526L231.028.21zM9.022 55.654C42.834 38.164 63.88 0 63.88 0l25.147 17.648S67.98 55.813 34.169 73.303L9.022 55.654zM298.928 7.496h85.63v17.276h-85.63zM298.928 33.41h85.63v28.86h-85.63zM300.054 24.772h85.63v8.638h-85.63z" fill="#F8F9FA" fill-rule="nonzero"/><path fill="#F8F9FA" fill-rule="nonzero" d="M296.111 61.996h85.63v22.636h-85.63z"/><path fill="#F8F9FA" fill-rule="nonzero" d="M298.928 84.357h85.63v17.276h-85.63zM298.928 110.271h85.63v28.86h-85.63zM300.054 101.633h85.63v8.638h-85.63z"/><path fill="#F8F9FA" fill-rule="nonzero" d="M296.111 138.857h85.63v22.636h-85.63z"/><path fill="#E8EAED" fill-rule="nonzero" d="M265.109 7.496h85.63v17.276h-85.63zM265.109 33.41h85.63v28.86h-85.63zM266.236 24.772h85.63v8.638h-85.63z"/><path fill="#E8EAED" fill-rule="nonzero" d="M262.292 61.996h85.63v22.636h-85.63z"/><path fill="#E8EAED" fill-rule="nonzero" d="M265.109 84.357h85.63v17.276h-85.63zM265.109 110.271h85.63v28.86h-85.63zM266.236 101.633h85.63v8.638h-85.63z"/><path fill="#E8EAED" fill-rule="nonzero" d="M262.292 138.857h85.63v22.636h-85.63z"/><path stroke="#F8F9FA" stroke-width="2" d="M350.739 47.706h-56.126"/><path stroke="#E8EAED" stroke-width="2" d="M273.454 47.706h-16.691"/><path stroke="#F8F9FA" stroke-width="2" d="M350.739 91.541h-45.632"/><path stroke="#E8EAED" stroke-width="2" d="M273.454 91.541h-16.691"/><path stroke="#F8F9FA" stroke-width="2" d="M350.739 80.284H322.78"/><path stroke="#E8EAED" stroke-width="2" d="M273.454 80.284H257.89M360.617 73.314h-32.114"/><path stroke="#F8F9FA" stroke-width="2" d="M300.054 73.314h-37.762"/><path stroke="#E8EAED" stroke-width="2" d="M381.741 105.227h-53.238"/><path stroke="#F8F9FA" stroke-width="2" d="M281.173 105.227h-18.881"/><path stroke="#E8EAED" stroke-width="2" d="M373.362 31.533h-44.859"/><path stroke="#F8F9FA" stroke-width="2" d="M317.898 31.533h-55.606"/><path fill="url(#a)" fill-rule="nonzero" d="M206.643 105.227h168.133v56.678H206.643z"/><path d="M168.257 40.672h7.697a4.299 4.299 0 0 1 4.299 4.299v13.282h-16.295V44.971a4.3 4.3 0 0 1 4.3-4.299zM248.43 40.736h7.696a4.299 4.299 0 0 1 4.299 4.299v13.282H244.13V45.035a4.299 4.299 0 0 1 4.3-4.3z" fill="#FABB05" fill-rule="nonzero"/><path stroke="#676C72" stroke-width="14.667" stroke-linecap="round" stroke-linejoin="round" d="M193.459 29.341h36.448v36.448h-36.448z"/><rect fill="#BDC1C6" fill-rule="nonzero" x="139.997" y="42.72" width="155.656" height="118.779" rx="17.271"/><rect fill="url(#b)" fill-rule="nonzero" x="128.73" y="42.72" width="155.656" height="118.779" rx="17.271"/><path fill="url(#c)" fill-rule="nonzero" style="mix-blend-mode:multiply" d="m256.631 116.283-41.262-.269 1.726-40.817 39.901.26z"/><path fill="#EFF0F2" fill-rule="nonzero" d="m261.202 102.831-3.33-22.621.059-9.068-40.808-.265-.059 9.067 4.352 30.845 31.521.205z"/><path fill="#FFF" fill-rule="nonzero" d="m252.932 110.999 8.277-8.17-8.223-.054z"/><path fill="url(#d)" fill-rule="nonzero" opacity=".4" style="mix-blend-mode:color-burn" d="m261.202 102.831-3.33-22.621.059-9.068-40.808-.265-.059 9.067 4.352 30.845 31.521.205z"/><path stroke="#4285F4" stroke-width="2.497" stroke-linecap="round" stroke-linejoin="round" d="M225.325 85.821h25.982M225.325 92.06h15.921"/><path fill="url(#e)" fill-rule="nonzero" opacity=".2" d="M0 157.861h37.544l2.454 3.638H0z"/><path d="M143.928 154.483H22.651V84.348A8.648 8.648 0 0 1 31.3 75.7h103.98a8.648 8.648 0 0 1 8.648 8.648v70.135z" fill="#BDC1C6" fill-rule="nonzero"/><path d="M143.928 154.483H25.884V84.348a8.648 8.648 0 0 1 8.648-8.648H135.28a8.648 8.648 0 0 1 8.648 8.648v70.135z" fill="#E8EAED" fill-rule="nonzero"/><path fill="#FFF" fill-rule="nonzero" d="M140.176 151.978H29.636V79.47h110.54z"/><path d="M28.474 154.482h109.632a5.822 5.822 0 0 1 5.822 5.823v1.194H22.651v-1.194a5.822 5.822 0 0 1 5.823-5.823z" fill="url(#f)" fill-rule="nonzero" transform="rotate(-180 83.29 157.99)"/><path d="M191.797 161.499H82.165a5.822 5.822 0 0 1-5.823-5.823v-1.193H197.62v1.193a5.822 5.822 0 0 1-5.822 5.823z" fill="#BDC1C6" fill-rule="nonzero"/><path d="M147.381 156.769h-20.8a2.286 2.286 0 0 1-2.287-2.286h25.373a2.286 2.286 0 0 1-2.286 2.286z" fill="#9AA0A6" fill-rule="nonzero"/><circle fill="#5BB974" fill-rule="nonzero" cx="46.013" cy="90.519" r="4.846"/><path stroke="#FFF" stroke-width="2.162" d="m43.53 90.269 1.794 1.794 3.364-3.364"/><circle fill="#5BB974" fill-rule="nonzero" cx="46.013" cy="107.751" r="4.846"/><path stroke="#FFF" stroke-width="2.162" d="m43.53 107.501 1.794 1.794 3.364-3.363"/><circle fill="#5BB974" fill-rule="nonzero" cx="46.013" cy="124.984" r="4.846"/><path stroke="#FFF" stroke-width="2.162" d="m43.53 124.733 1.794 1.794 3.364-3.363"/><circle fill="#FBBC04" fill-rule="nonzero" cx="46.013" cy="142.216" r="4.846"/><path fill="#F1F3F4" fill-rule="nonzero" d="M55.655 86.297h72.937v7.734H55.655zM55.655 102.906h72.937v7.734H55.655zM55.655 120.979h72.937v7.734H55.655zM55.655 138.349h72.937v7.734H55.655z"/><path fill="url(#g)" fill-rule="nonzero" opacity=".2" d="M228.197 157.842h36.855l2.409 3.571h-39.264zM273.734 157.842h36.855l2.409 3.571h-39.264z"/><path fill="#EA8600" fill-rule="nonzero" d="M290.399 128.284h-29.405l-.919-.786h31.243z"/><path fill="#F29900" fill-rule="nonzero" d="M260.994 121.658h29.405l.919.786h-31.243z"/><path fill="url(#h)" fill-rule="nonzero" d="M260.075 122.444h31.243v5.065h-31.243z"/><g stroke-width="1.662"><path stroke="#FDDE83" d="M287.846 121.89v6.891"/><path stroke="#FDDA73" d="M284.375 121.89v6.891"/><path stroke="#FCD563" d="M280.904 121.89v6.891"/><path stroke="#FCD153" d="M277.432 121.89v6.891"/><path stroke="#FCCD44" d="M273.961 121.89v6.891"/><path stroke="#FCC934" d="M270.489 121.89v6.891"/><path stroke="#FBC424" d="M267.018 121.89v6.891"/><path stroke="#FBC014" d="M263.547 121.89v6.891"/></g><path fill="#EA8600" fill-rule="nonzero" d="M289.48 134.909h-29.405l-.919-.785h31.243z"/><path fill="#F29900" fill-rule="nonzero" d="M260.075 128.284h29.405l.919.786h-31.243z"/><path fill="url(#h)" fill-rule="nonzero" d="M259.156 129.07h31.243v5.065h-31.243z"/><g stroke-width="1.662"><path stroke="#FDDE83" d="M286.928 128.515v6.892"/><path stroke="#FDDA73" d="M283.456 128.515v6.892"/><path stroke="#FCD563" d="M279.985 128.515v6.892"/><path stroke="#FCD153" d="M276.513 128.515v6.892"/><path stroke="#FCCD44" d="M273.042 128.515v6.892"/><path stroke="#FCC934" d="M269.571 128.515v6.892"/><path stroke="#FBC424" d="M266.099 128.515v6.892"/><path stroke="#FBC014" d="M262.628 128.515v6.892"/></g><path fill="#EA8600" fill-rule="nonzero" d="M291.777 121.701h-29.404l-.919-.785h31.242z"/><path fill="#F29900" fill-rule="nonzero" d="M262.373 115.076h29.404l.919.786h-31.242z"/><path fill="url(#i)" fill-rule="nonzero" d="M261.454 115.862h31.243v5.065h-31.243z"/><g stroke-width="1.662"><path stroke="#FDDE83" d="M289.225 115.307v6.892"/><path stroke="#FDDA73" d="M285.753 115.307v6.892"/><path stroke="#FCD563" d="M282.282 115.307v6.892"/><path stroke="#FCD153" d="M278.811 115.307v6.892"/><path stroke="#FCCD44" d="M275.339 115.307v6.892"/><path stroke="#FCC934" d="M271.868 115.307v6.892"/><path stroke="#FBC424" d="M268.396 115.307v6.892"/><path stroke="#FBC014" d="M264.925 115.307v6.892"/></g><path fill="#EA8600" fill-rule="nonzero" d="M290.399 141.535h-29.405l-.919-.786h31.243z"/><path fill="#F29900" fill-rule="nonzero" d="M260.994 134.909h29.405l.919.786h-31.243z"/><path fill="url(#h)" fill-rule="nonzero" d="M260.075 135.695h31.243v5.065h-31.243z"/><g stroke-width="1.662"><path stroke="#FDDE83" d="M287.846 135.141v6.892"/><path stroke="#FDDA73" d="M284.375 135.141v6.892"/><path stroke="#FCD563" d="M280.904 135.141v6.892"/><path stroke="#FCD153" d="M277.432 135.141v6.892"/><path stroke="#FCCD44" d="M273.961 135.141v6.892"/><path stroke="#FCC934" d="M270.489 135.141v6.892"/><path stroke="#FBC424" d="M267.018 135.141v6.892"/><path stroke="#FBC014" d="M263.547 135.141v6.892"/></g><path fill="#EA8600" fill-rule="nonzero" d="M290.399 148.161h-29.405l-.919-.786h31.243z"/><path fill="#F29900" fill-rule="nonzero" d="M260.994 141.535h29.405l.919.786h-31.243z"/><path fill="url(#h)" fill-rule="nonzero" d="M260.075 142.321h31.243v5.065h-31.243z"/><g stroke-width="1.662"><path stroke="#FDDE83" d="M287.846 141.767v6.892"/><path stroke="#FDDA73" d="M284.375 141.767v6.892"/><path stroke="#FCD563" d="M280.904 141.767v6.892"/><path stroke="#FCD153" d="M277.432 141.767v6.892"/><path stroke="#FCCD44" d="M273.961 141.767v6.892"/><path stroke="#FCC934" d="M270.489 141.767v6.892"/><path stroke="#FBC424" d="M267.018 141.767v6.892"/><path stroke="#FBC014" d="M263.547 141.767v6.892"/></g><path fill="#EA8600" fill-rule="nonzero" d="M290.399 154.787h-29.405l-.919-.786h31.243z"/><path fill="#F29900" fill-rule="nonzero" d="M260.994 148.161h29.405l.919.786h-31.243z"/><path fill="url(#h)" fill-rule="nonzero" d="M260.075 148.947h31.243v5.065h-31.243z"/><g stroke-width="1.662"><path stroke="#FDDE83" d="M287.846 148.393v6.892"/><path stroke="#FDDA73" d="M284.375 148.393v6.892"/><path stroke="#FCD563" d="M280.904 148.393v6.892"/><path stroke="#FCD153" d="M277.432 148.393v6.892"/><path stroke="#FCCD44" d="M273.961 148.393v6.892"/><path stroke="#FCC934" d="M270.489 148.393v6.892"/><path stroke="#FBC424" d="M267.018 148.393v6.892"/><path stroke="#FBC014" d="M263.547 148.393v6.892"/></g><path fill="#EA8600" fill-rule="nonzero" d="M290.399 161.413h-29.405l-.919-.786h31.243z"/><path fill="#F29900" fill-rule="nonzero" d="M260.994 154.787h29.405l.919.786h-31.243z"/><path fill="url(#h)" fill-rule="nonzero" d="M260.075 155.573h31.243v5.065h-31.243z"/><g stroke-width="1.662"><path stroke="#FDDE83" d="M287.846 155.019v6.891"/><path stroke="#FDDA73" d="M284.375 155.019v6.891"/><path stroke="#FCD563" d="M280.904 155.019v6.891"/><path stroke="#FCD153" d="M277.432 155.019v6.891"/><path stroke="#FCCD44" d="M273.961 155.019v6.891"/><path stroke="#FCC934" d="M270.489 155.019v6.891"/><path stroke="#FBC424" d="M267.018 155.019v6.891"/><path stroke="#FBC014" d="M263.547 155.019v6.891"/></g><path fill="#EA8600" fill-rule="nonzero" d="m312.338 161.311-20.793-20.792-.094-1.206 22.092 22.092z"/><path fill="#FDD663" fill-rule="nonzero" d="m296.23 135.834 20.793 20.792.094 1.205-22.092-22.091z"/><path fill="url(#j)" fill-rule="nonzero" transform="rotate(45 304.28 148.576)" d="M288.659 146.044h31.243v5.065h-31.243z"/><g stroke-width="1.662"><path stroke="#FDDE83" d="m315.054 154.985-4.873 4.873"/><path stroke="#FDDA73" d="m312.599 152.53-4.873 4.874"/><path stroke="#FCD563" d="m310.145 150.076-4.874 4.873"/><path stroke="#FCD153" d="m307.69 147.621-4.873 4.873"/><path stroke="#FCCD44" d="m305.235 145.166-4.873 4.874"/><path stroke="#FCC934" d="m302.781 142.712-4.874 4.873"/><path stroke="#FBC424" d="m300.326 140.257-4.873 4.873"/><path stroke="#FBC014" d="m297.872 137.802-4.874 4.874"/></g></g></svg>